<?xml version="1.0" encoding="UTF-8"?>
<svg version="1.1" xmlns="http://www.w3.org/2000/svg" width="1438" height="1442">
<path d="M0 0 C1.48408026 -0.0069837 2.96816025 -0.01402461 4.45223999 -0.02111816 C9.16347638 -0.04036681 13.87466606 -0.04529372 18.5859375 -0.046875 C19.79023407 -0.04775871 19.79023407 -0.04775871 21.01885986 -0.04866028 C45.10057881 -0.06112929 69.00461715 0.25544728 92.95947266 2.97851562 C94.97330793 3.20451324 96.98817297 3.41666051 99.00390625 3.625 C145.10611971 8.42738669 190.7495774 18.35763859 234.9609375 32.203125 C235.62440186 32.41088562 236.28786621 32.61864624 236.97143555 32.83270264 C257.69181957 39.34784307 277.94629641 46.76802689 297.9609375 55.203125 C299.05438477 55.66235352 300.14783203 56.12158203 301.27441406 56.59472656 C329.74293317 68.65269151 357.80898504 82.42322494 384.21191406 98.52929688 C387.08355495 100.27778443 389.97001228 101.99972607 392.859375 103.71875 C405.21525971 111.10566315 417.1909826 118.91767791 428.9609375 127.203125 C430.14442203 128.02750057 431.32800826 128.85173016 432.51171875 129.67578125 C457.69707151 147.32865421 481.7638441 166.74947813 504.2956543 187.68139648 C505.52280836 188.8027645 506.7633137 189.90956388 508.01098633 191.00805664 C515.33685854 197.48213612 522.24804617 204.33780925 529.14819336 211.26000977 C531.15170736 213.26890364 533.16053902 215.27236889 535.16992188 217.27539062 C541.31519411 223.41747241 547.33676513 229.5747433 552.9609375 236.203125 C554.73458911 238.15786831 556.53679805 240.08411643 558.3359375 242.015625 C562.55046976 246.58262711 566.56390363 251.26591862 570.4609375 256.109375 C572.35998397 258.459445 574.27552446 260.78956122 576.2109375 263.109375 C583.56799389 271.93866057 590.6735969 280.89858812 597.46777344 290.16845703 C598.97043109 292.21606149 600.48502284 294.25446885 602 296.29296875 C615.59474478 314.71776131 628.02401984 334.03794043 639.56347656 353.80957031 C640.49058534 355.39751134 641.42218919 356.98283698 642.35839844 358.56542969 C662.83230572 393.19062889 679.86605559 429.54184575 693.9609375 467.203125 C694.64518799 469.03133789 694.64518799 469.03133789 695.34326172 470.89648438 C715.97663275 526.34838661 729.13511211 584.14552305 735.70379639 642.91595459 C735.94955468 645.10187923 736.20492171 647.28650616 736.46142578 649.47119141 C741.89639426 696.82708636 741.77174575 747.70623364 736.21417236 795.04095459 C735.94874253 797.30724813 735.69437123 799.57462291 735.44091797 801.84228516 C725.08890737 893.28387414 697.50831807 981.31836296 636.9609375 1093.203125 C636.15124512 1094.55180664 636.15124512 1094.55180664 635.32519531 1095.92773438 C617.07578289 1126.21399329 596.52370874 1155.44158306 573.4609375 1182.26953125 C571.13469175 1184.99923525 568.88667597 1187.77621251 566.6484375 1190.578125 C562.3634305 1195.85138587 557.76789737 1200.79694439 553.09643555 1205.72607422 C550.23625358 1208.74631503 547.43375359 1211.79273994 544.72290039 1214.94824219 C541.0852924 1219.11621482 537.25651363 1223.05236278 533.33984375 1226.95703125 C532.63625229 1227.66157944 531.93266083 1228.36612762 531.20774841 1229.09202576 C529.73079102 1230.56965867 528.25259008 1232.04604957 526.77319336 1233.52124023 C524.52928665 1235.75978981 522.29077046 1238.00362973 520.05273438 1240.24804688 C518.60709132 1241.69302904 517.16113805 1243.13770092 515.71484375 1244.58203125 C514.72696617 1245.57294518 514.72696617 1245.57294518 513.71913147 1246.58387756 C509.83471208 1250.44908979 505.84158342 1254.13398143 501.69049072 1257.71168518 C499.4712071 1259.62543257 497.31121703 1261.60094301 495.1484375 1263.578125 C490.91004907 1267.39909638 486.56214647 1271.04559831 482.125 1274.6328125 C479.7480894 1276.55492961 477.39417807 1278.50277769 475.046875 1280.4609375 C433.72380482 1314.88325144 387.65759802 1344.58469036 339.27392578 1368.07324219 C336.56688116 1369.39561948 333.8721305 1370.74188972 331.17578125 1372.0859375 C258.4583813 1408.04430248 178.61329555 1430.3351861 98.00201416 1438.98309326 C96.64359014 1439.12953382 95.28546946 1439.27881684 93.92767334 1439.43096924 C44.8952436 1444.92116572 -7.02813533 1444.86500268 -56.0390625 1439.203125 C-56.7908075 1439.11826843 -57.54255249 1439.03341187 -58.31707764 1438.94598389 C-138.13207416 1429.8988699 -216.70577792 1408.3231442 -289.0390625 1373.203125 C-289.68723938 1372.88945984 -290.33541626 1372.57579468 -291.00323486 1372.25262451 C-309.14486935 1363.46859866 -326.98233434 1354.375924 -344.22558594 1343.90917969 C-347.12575354 1342.15055671 -350.03836599 1340.41400259 -352.953125 1338.6796875 C-365.30185866 1331.29426141 -377.27999194 1323.49280202 -389.0390625 1315.203125 C-389.67102539 1314.7601709 -390.30298828 1314.3172168 -390.95410156 1313.86083984 C-405.47935543 1303.66967116 -419.55203822 1292.95036007 -433.24951172 1281.67236328 C-434.87217509 1280.34014115 -436.50394348 1279.01902827 -438.13671875 1277.69921875 C-443.47423897 1273.38265879 -448.64337533 1268.93052585 -453.71875 1264.30859375 C-455.74060434 1262.47394815 -457.78584772 1260.67543714 -459.8515625 1258.890625 C-470.44407352 1249.63459806 -480.5249756 1239.87992065 -490.45263672 1229.91992188 C-492.4295226 1227.93762256 -494.41177289 1225.96079867 -496.39453125 1223.984375 C-502.49025959 1217.89184283 -508.46886048 1211.78609102 -514.0390625 1205.203125 C-515.65874067 1203.42742279 -517.28317968 1201.65604193 -518.9140625 1199.890625 C-523.36092727 1195.00975691 -527.56335151 1189.97936976 -531.70654297 1184.84033203 C-533.22127854 1182.97924432 -534.75578035 1181.13555294 -536.29296875 1179.29296875 C-544.18839638 1169.81625937 -551.78617749 1160.18075577 -559.0390625 1150.203125 C-559.49925781 1149.57067871 -559.95945312 1148.93823242 -560.43359375 1148.28662109 C-574.38061504 1129.02107021 -587.71363342 1109.16241906 -599.65332031 1088.58935547 C-601.04980613 1086.1846246 -602.46203512 1083.78960827 -603.875 1081.39453125 C-644.30798971 1012.31468649 -672.59066326 935.45898226 -695.81903076 799.20196533 C-696.03739449 797.21827777 -696.26694645 795.23583229 -696.49658203 793.25341797 C-701.89546767 745.73382552 -701.86440166 694.85314756 -696.29229736 647.36853027 C-696.02651361 645.09581975 -695.7722547 642.82199506 -695.51904297 640.54785156 C-686.79245158 563.14188472 -665.93086865 486.47120147 -632.40429688 416.07763672 C-630.96892994 413.05546035 -629.5580589 410.02254308 -628.1484375 406.98828125 C-621.8904207 393.6176649 -615.04213876 380.71856846 -607.62841797 367.95556641 C-606.07886391 365.27205297 -604.55640239 362.57511514 -603.04296875 359.87109375 C-577.39007614 314.14257921 -545.45540638 271.26936514 -509.65649414 232.96411133 C-508.485983 231.6897118 -507.33078345 230.4011923 -506.18530273 229.10424805 C-499.8564321 221.94811255 -493.17297922 215.18431745 -486.40942383 208.44311523 C-484.47295701 206.51202953 -482.54192294 204.57562618 -480.61132812 202.63867188 C-474.58817483 196.61227546 -468.54361758 190.71383237 -462.0390625 185.203125 C-460.26336029 183.58344683 -458.49197943 181.95900782 -456.7265625 180.328125 C-452.23892818 176.23555065 -447.62976022 172.35041666 -442.90234375 168.5390625 C-440.38551952 166.48577343 -437.91442571 164.38842686 -435.45410156 162.26806641 C-428.28359741 156.10475372 -420.82032851 150.40897588 -413.20751953 144.80517578 C-410.97501894 143.15580977 -408.75439134 141.49138163 -406.53515625 139.82421875 C-394.98342437 131.17924758 -383.13631877 123.06413277 -371.0390625 115.203125 C-370.26127441 114.69571777 -369.48348633 114.18831055 -368.68212891 113.66552734 C-345.63058529 98.68128342 -321.59981369 85.51276007 -297.0390625 73.203125 C-295.9680127 72.66558594 -294.89696289 72.12804687 -293.79345703 71.57421875 C-268.63419635 59.02799783 -242.56564775 48.48934273 -216.0390625 39.203125 C-215.38778381 38.97451782 -214.73650513 38.74591064 -214.06549072 38.51037598 C-145.90737538 14.65411602 -72.34981774 0.21342479 0 0 Z M-338.0390625 872.203125 C-338.0390625 872.863125 -338.0390625 873.523125 -338.0390625 874.203125 C-338.6990625 874.203125 -339.3590625 874.203125 -340.0390625 874.203125 C-340.6990625 876.183125 -341.3590625 878.163125 -342.0390625 880.203125 C-342.6990625 880.203125 -343.3590625 880.203125 -344.0390625 880.203125 C-345.70783971 881.89118132 -345.70783971 881.89118132 -347.4140625 884.015625 C-349.27472532 886.26563357 -350.90778953 888.10662785 -353.265625 889.83984375 C-353.85085938 890.28972656 -354.43609375 890.73960937 -355.0390625 891.203125 C-355.0390625 891.863125 -355.0390625 892.523125 -355.0390625 893.203125 C-356.0290625 893.533125 -357.0190625 893.863125 -358.0390625 894.203125 C-359.4735605 896.68494886 -359.4735605 896.68494886 -360.6640625 899.640625 C-361.08945312 900.62933594 -361.51484375 901.61804688 -361.953125 902.63671875 C-362.31148438 903.48363281 -362.66984375 904.33054687 -363.0390625 905.203125 C-363.3690625 905.863125 -363.6990625 906.523125 -364.0390625 907.203125 C-364.31458062 909.95830617 -364.48512491 912.71330171 -364.66015625 915.4765625 C-365.0390625 918.203125 -365.0390625 918.203125 -366.09375 920.26171875 C-367.2902095 922.71891037 -367.09476992 924.20670348 -366.7265625 926.890625 C-366.62730469 927.67824219 -366.52804687 928.46585938 -366.42578125 929.27734375 C-366.2241435 931.20272767 -366.2241435 931.20272767 -365.0390625 932.203125 C-364.90570913 933.69551989 -364.83562981 935.19367274 -364.79296875 936.69140625 C-364.76154785 937.62001465 -364.73012695 938.54862305 -364.69775391 939.50537109 C-364.66601074 940.49875488 -364.63426758 941.49213867 -364.6015625 942.515625 C-364.12742387 956.88799542 -364.12742387 956.88799542 -360.2890625 970.640625 C-359.0390625 974.203125 -359.0390625 974.203125 -359.6640625 977.078125 C-361.0390625 979.203125 -361.0390625 979.203125 -364.0390625 981.203125 C-364.77040667 984.25039238 -364.60109349 987.13277049 -364.0390625 990.203125 C-361.84524258 993.402451 -361.84524258 993.402451 -359.0390625 996.203125 C-357.95090321 997.92375233 -356.98691621 999.68405902 -356.015625 1001.47265625 C-355.05759763 1003.17028074 -353.95455563 1004.78340644 -352.8515625 1006.390625 C-351.2915287 1008.81136711 -350.46998175 1010.40214991 -350.0390625 1013.203125 C-349.3790625 1013.203125 -348.7190625 1013.203125 -348.0390625 1013.203125 C-347.79929687 1013.77417969 -347.55953125 1014.34523438 -347.3125 1014.93359375 C-345.78510057 1017.65573813 -343.9415839 1019.38565067 -341.6640625 1021.515625 C-337.89293687 1025.18351531 -335.34371655 1028.49361455 -333.0390625 1033.203125 C-332.3790625 1033.203125 -331.7190625 1033.203125 -331.0390625 1033.203125 C-330.81347656 1033.75484375 -330.58789062 1034.3065625 -330.35546875 1034.875 C-328.64352556 1037.90265027 -326.45249239 1040.01638249 -323.9765625 1042.453125 C-322.62884766 1043.79117187 -322.62884766 1043.79117187 -321.25390625 1045.15625 C-319.41929981 1047.31624339 -319.41929981 1047.31624339 -318.0390625 1047.203125 C-318.02488281 1046.10613281 -318.01070313 1045.00914062 -317.99609375 1043.87890625 C-317.94917542 1042.42443802 -317.90092812 1040.97001223 -317.8515625 1039.515625 C-317.84576172 1038.79439453 -317.83996094 1038.07316406 -317.83398438 1037.33007812 C-317.66845927 1033.30230057 -317.34364629 1031.59701085 -314.80078125 1028.30859375 C-312.20823543 1026.33209842 -310.05964777 1025.33018068 -307.0390625 1024.203125 C-306.88963847 1019.2410979 -306.78134867 1014.28040766 -306.70947266 1009.31665039 C-306.67948191 1007.63184774 -306.6386738 1005.9471988 -306.58642578 1004.26293945 C-305.99229737 991.60618227 -305.99229737 991.60618227 -311.64208984 980.61694336 C-312.43907356 979.81034904 -313.23725908 979.00492842 -314.0390625 978.203125 C-314.13797447 976.77356711 -314.16985673 975.33922427 -314.171875 973.90625 C-314.17316406 973.0296875 -314.17445313 972.153125 -314.17578125 971.25 C-314.17191406 970.32703125 -314.16804688 969.4040625 -314.1640625 968.453125 C-314.16986328 967.091875 -314.16986328 967.091875 -314.17578125 965.703125 C-314.17449219 964.82140625 -314.17320312 963.9396875 -314.171875 963.03125 C-314.17074707 962.2259082 -314.16961914 961.42056641 -314.16845703 960.59082031 C-314.0390625 958.203125 -314.0390625 958.203125 -313.46826172 955.46386719 C-313.32662598 954.71782227 -313.18499023 953.97177734 -313.0390625 953.203125 C-313.3690625 952.873125 -313.6990625 952.543125 -314.0390625 952.203125 C-314.40884676 950.56509628 -314.73575033 948.91725456 -315.0390625 947.265625 C-315.6894144 943.61779901 -315.6894144 943.61779901 -317.0390625 940.203125 C-317.28468709 935.78188235 -317.09109414 933.06577279 -315.0390625 929.203125 C-313.60863902 923.37139849 -314.62992805 920.57734801 -317.0390625 915.203125 C-317.39413619 912.86978363 -317.59457046 910.57432027 -317.73046875 908.21875 C-317.94148906 905.89189498 -317.94148906 905.89189498 -320.0390625 903.203125 C-320.23404477 900.6568859 -320.31812034 898.24568605 -320.2890625 895.703125 C-320.30066406 894.68798828 -320.30066406 894.68798828 -320.3125 893.65234375 C-320.29791061 889.95393243 -320.14170692 888.35709163 -318.0390625 885.203125 C-318.25664891 882.3019729 -318.66080055 880.68006399 -320.4765625 878.390625 C-321.97735993 877.00143058 -321.97735993 877.00143058 -324.0390625 877.203125 C-324.3071875 876.584375 -324.5753125 875.965625 -324.8515625 875.328125 C-325.99463098 872.9036017 -325.99463098 872.9036017 -329.0390625 871.203125 C-333.69323419 870.86090055 -333.69323419 870.86090055 -338.0390625 872.203125 Z " fill="#FEFEFE" transform="translate(699.0390625,-0.203125)"/>
<path d="M0 0 C1.26542633 -0.00006042 2.53085266 -0.00012085 3.83462524 -0.00018311 C24.56514091 0.01385543 45.14507403 0.60828051 65.8125 2.1875 C67.79552444 2.3223294 69.77859355 2.45650445 71.76171875 2.58984375 C88.69906134 3.81683874 105.52584408 6.27310623 122.34277344 8.57910156 C126.14553213 9.09949599 129.95095005 9.59637069 133.7578125 10.0859375 C184.97505561 16.81857396 237.08482692 24.84592606 277.8125 59.1875 C278.66972656 59.89777344 279.52695313 60.60804688 280.41015625 61.33984375 C290.96700658 70.39994607 298.97777084 81.51489151 300.0859375 95.68359375 C300.53406487 113.0743827 294.14720725 126.38506984 282.28125 139.01953125 C276.0837303 145.4212158 269.63419707 151.35749097 262.6328125 156.875 C258.52124989 160.24625355 254.67577967 163.88405236 250.80371094 167.52514648 C247.7601366 170.38555053 244.69512456 173.18269384 241.5 175.875 C223.86828877 191.22319873 209.51770482 213.68020294 206.8125 237.1875 C205.32489112 263.60845081 211.5709813 282.63010561 223.84057617 305.57788086 C244.43072105 344.37956748 259.72572005 387.21550523 268.8125 430.1875 C269.05049316 431.30302246 269.28848633 432.41854492 269.53369141 433.56787109 C272.7836269 449.02026708 275.1524965 464.48838462 276.8125 480.1875 C276.91691406 481.09000488 277.02132812 481.99250977 277.12890625 482.92236328 C282.69422366 531.73336712 279.68702266 583.9314434 268.40185547 631.64453125 C267.83978406 634.06977393 267.31924608 636.49936496 266.81640625 638.9375 C264.68112722 649.21794207 261.77766165 659.11054668 258.49560547 669.08056641 C257.57032924 671.93443839 256.72465754 674.81033346 255.875 677.6875 C245.55157295 711.13372503 230.36688993 742.99571524 212.8125 773.1875 C211.88909893 774.79023556 210.96590877 776.39309265 210.04296875 777.99609375 C205.25670286 786.26673227 200.26300819 794.33292837 194.8125 802.1875 C194.14347656 803.15405518 194.14347656 803.15405518 193.4609375 804.14013672 C179.31436336 824.53257464 164.29998553 845.35167057 146.37890625 862.625 C144.6350076 864.36454977 143.04069814 866.19271083 141.4375 868.0625 C135.76765631 874.62023868 129.60179054 880.62329469 123.01953125 886.2578125 C120.86684215 888.13998668 118.77676041 890.08004678 116.69018555 892.03491211 C110.31336159 897.98695981 103.6310734 903.40207865 96.71386719 908.70996094 C94.78077525 910.21215308 92.87707469 911.74591157 90.9765625 913.2890625 C71.87038851 928.67753833 51.07448793 942.25134799 29.63671875 954.15478516 C27.06451639 955.61094361 24.56697969 957.18097329 22.0625 958.75 C18.37749856 960.99332544 15.02438644 962.27187251 10.8125 963.1875 C10.8125 963.8475 10.8125 964.5075 10.8125 965.1875 C8.8325 965.8475 6.8525 966.5075 4.8125 967.1875 C4.8125 967.8475 4.8125 968.5075 4.8125 969.1875 C4.22766846 969.4153418 3.64283691 969.64318359 3.0402832 969.87792969 C-3.72737106 972.54596638 -10.36187109 975.4645189 -17 978.4375 C-30.44848561 984.40837114 -44.05690866 989.87594429 -58.03857422 994.47265625 C-60.04212502 995.13914077 -62.03135969 995.83604332 -64.01953125 996.546875 C-77.81911217 1001.41014809 -91.9655006 1004.80345282 -106.1875 1008.1875 C-107.09693359 1008.40712402 -108.00636719 1008.62674805 -108.94335938 1008.85302734 C-118.01229695 1011.03450346 -126.96650443 1012.71429874 -136.24609375 1013.6953125 C-139.3203127 1014.07920902 -142.29671698 1014.56379841 -145.3359375 1015.140625 C-167.27653211 1019.19642961 -189.44415084 1019.48491939 -211.6875 1019.5 C-213.45932144 1019.5051059 -213.45932144 1019.5051059 -215.26693726 1019.51031494 C-237.81698487 1019.5474717 -260.01837016 1018.01373047 -282.3125 1014.625 C-283.15035034 1014.49845032 -283.98820068 1014.37190063 -284.85144043 1014.24151611 C-371.99757089 1000.90390464 -455.93956132 962.54877931 -529.67578125 897.453125 C-531.05461053 896.20939097 -532.43990417 894.97224783 -533.8527832 893.76733398 C-539.57859145 888.86631216 -544.91871377 883.60901943 -550.2331543 878.2722168 C-551.7474258 876.75258332 -553.2669743 875.23837483 -554.78710938 873.72460938 C-560.13118299 868.38451736 -565.29570162 862.94895143 -570.1875 857.1875 C-571.13650247 856.10413682 -572.08697104 855.02205574 -573.0390625 853.94140625 C-580.84054029 844.997604 -588.09916456 835.7032898 -595.1875 826.1875 C-595.7252002 825.47078125 -596.26290039 824.7540625 -596.81689453 824.015625 C-655.39196622 745.70425774 -687.35536408 647.31975836 -683.875 474.3125 C-681.75214872 459.85216205 -679.21820679 445.48616415 -676.1875 431.1875 C-675.95369629 430.0516748 -675.71989258 428.91584961 -675.47900391 427.74560547 C-668.79093292 395.58378753 -658.08205095 364.92106639 -644.1875 335.1875 C-643.45345947 333.61186279 -643.45345947 333.61186279 -642.70458984 332.00439453 C-625.74349697 295.99866336 -603.46383952 261.91455122 -578.1875 231.1875 C-577.48496094 230.31222656 -576.78242187 229.43695313 -576.05859375 228.53515625 C-571.46742552 222.84210764 -566.70496824 217.36044963 -561.7421875 211.98828125 C-560.41818886 210.53674146 -559.09735136 209.08126493 -557.82617188 207.58325195 C-552.18591224 200.95239955 -546.02531073 194.8392287 -539.87353516 188.68823242 C-537.95053818 186.76305298 -536.03569426 184.83000969 -534.12109375 182.89648438 C-527.84015039 176.58754411 -521.53769269 170.56087653 -514.52685547 165.05932617 C-512.0999438 163.11744225 -509.83117052 161.06100223 -507.5625 158.9375 C-500.50049312 152.52052682 -492.81982824 146.89936382 -485.1875 141.1875 C-484.41132324 140.60242676 -483.63514648 140.01735352 -482.83544922 139.41455078 C-471.90760599 131.18321758 -460.80553367 123.41173449 -449.1875 116.1875 C-448.32141113 115.64625488 -447.45532227 115.10500977 -446.56298828 114.54736328 C-433.63041515 106.48865846 -420.51020991 98.87518405 -407.05712891 91.71899414 C-404.94515598 90.59185392 -402.8388695 89.45404265 -400.73583984 88.31030273 C-391.91064854 83.5235616 -382.96043605 79.13425209 -373.8125 75 C-373.11250885 74.68245758 -372.4125177 74.36491516 -371.6913147 74.03775024 C-300.90256682 42.01079186 -225.145709 20.71946906 -148.1875 10.1875 C-147.46326843 10.08735596 -146.73903687 9.98721191 -145.99285889 9.8840332 C-123.22501281 6.75116014 -100.42094402 4.59401177 -77.5 2.9375 C-75.78151855 2.8130098 -75.78151855 2.8130098 -74.02832031 2.68600464 C-49.33671532 0.91975065 -24.75638592 -0.01828254 0 0 Z M-567.1875 695.1875 C-567.1875 695.8475 -567.1875 696.5075 -567.1875 697.1875 C-567.8475 697.1875 -568.5075 697.1875 -569.1875 697.1875 C-569.8475 699.1675 -570.5075 701.1475 -571.1875 703.1875 C-571.8475 703.1875 -572.5075 703.1875 -573.1875 703.1875 C-574.85627721 704.87555632 -574.85627721 704.87555632 -576.5625 707 C-578.42316282 709.25000857 -580.05622703 711.09100285 -582.4140625 712.82421875 C-582.99929688 713.27410156 -583.58453125 713.72398437 -584.1875 714.1875 C-584.1875 714.8475 -584.1875 715.5075 -584.1875 716.1875 C-585.1775 716.5175 -586.1675 716.8475 -587.1875 717.1875 C-588.621998 719.66932386 -588.621998 719.66932386 -589.8125 722.625 C-590.23789062 723.61371094 -590.66328125 724.60242188 -591.1015625 725.62109375 C-591.45992187 726.46800781 -591.81828125 727.31492187 -592.1875 728.1875 C-592.5175 728.8475 -592.8475 729.5075 -593.1875 730.1875 C-593.46301812 732.94268117 -593.63356241 735.69767671 -593.80859375 738.4609375 C-594.1875 741.1875 -594.1875 741.1875 -595.2421875 743.24609375 C-596.438647 745.70328537 -596.24320742 747.19107848 -595.875 749.875 C-595.77574219 750.66261719 -595.67648437 751.45023438 -595.57421875 752.26171875 C-595.372581 754.18710267 -595.372581 754.18710267 -594.1875 755.1875 C-594.05414663 756.67989489 -593.98406731 758.17804774 -593.94140625 759.67578125 C-593.90998535 760.60438965 -593.87856445 761.53299805 -593.84619141 762.48974609 C-593.81444824 763.48312988 -593.78270508 764.47651367 -593.75 765.5 C-593.27586137 779.87237042 -593.27586137 779.87237042 -589.4375 793.625 C-588.1875 797.1875 -588.1875 797.1875 -588.8125 800.0625 C-590.1875 802.1875 -590.1875 802.1875 -593.1875 804.1875 C-593.91884417 807.23476738 -593.74953099 810.11714549 -593.1875 813.1875 C-590.99368008 816.386826 -590.99368008 816.386826 -588.1875 819.1875 C-587.09934071 820.90812733 -586.13535371 822.66843402 -585.1640625 824.45703125 C-584.20603513 826.15465574 -583.10299313 827.76778144 -582 829.375 C-580.4399662 831.79574211 -579.61841925 833.38652491 -579.1875 836.1875 C-578.5275 836.1875 -577.8675 836.1875 -577.1875 836.1875 C-576.94773437 836.75855469 -576.70796875 837.32960938 -576.4609375 837.91796875 C-574.93353807 840.64011313 -573.0900214 842.37002567 -570.8125 844.5 C-567.04137437 848.16789031 -564.49215405 851.47798955 -562.1875 856.1875 C-561.5275 856.1875 -560.8675 856.1875 -560.1875 856.1875 C-559.96191406 856.73921875 -559.73632812 857.2909375 -559.50390625 857.859375 C-557.79196306 860.88702527 -555.60092989 863.00075749 -553.125 865.4375 C-551.77728516 866.77554688 -551.77728516 866.77554688 -550.40234375 868.140625 C-548.56773731 870.30061839 -548.56773731 870.30061839 -547.1875 870.1875 C-547.17332031 869.09050781 -547.15914062 867.99351562 -547.14453125 866.86328125 C-547.09761292 865.40881302 -547.04936562 863.95438723 -547 862.5 C-546.99419922 861.77876953 -546.98839844 861.05753906 -546.98242188 860.31445312 C-546.81689677 856.28667557 -546.49208379 854.58138585 -543.94921875 851.29296875 C-541.35667293 849.31647342 -539.20808527 848.31455568 -536.1875 847.1875 C-536.03807597 842.2254729 -535.92978617 837.26478266 -535.85791016 832.30102539 C-535.82791941 830.61622274 -535.7871113 828.9315738 -535.73486328 827.24731445 C-535.14073487 814.59055727 -535.14073487 814.59055727 -540.79052734 803.60131836 C-541.58751106 802.79472404 -542.38569658 801.98930342 -543.1875 801.1875 C-543.28641197 799.75794211 -543.31829423 798.32359927 -543.3203125 796.890625 C-543.32160156 796.0140625 -543.32289063 795.1375 -543.32421875 794.234375 C-543.32035156 793.31140625 -543.31648438 792.3884375 -543.3125 791.4375 C-543.31830078 790.07625 -543.31830078 790.07625 -543.32421875 788.6875 C-543.32292969 787.80578125 -543.32164062 786.9240625 -543.3203125 786.015625 C-543.31918457 785.2102832 -543.31805664 784.40494141 -543.31689453 783.57519531 C-543.1875 781.1875 -543.1875 781.1875 -542.61669922 778.44824219 C-542.47506348 777.70219727 -542.33342773 776.95615234 -542.1875 776.1875 C-542.5175 775.8575 -542.8475 775.5275 -543.1875 775.1875 C-543.55728426 773.54947128 -543.88418783 771.90162956 -544.1875 770.25 C-544.8378519 766.60217401 -544.8378519 766.60217401 -546.1875 763.1875 C-546.43312459 758.76625735 -546.23953164 756.05014779 -544.1875 752.1875 C-542.75707652 746.35577349 -543.77836555 743.56172301 -546.1875 738.1875 C-546.54257369 735.85415863 -546.74300796 733.55869527 -546.87890625 731.203125 C-547.08992656 728.87626998 -547.08992656 728.87626998 -549.1875 726.1875 C-549.38248227 723.6412609 -549.46655784 721.23006105 -549.4375 718.6875 C-549.44910156 717.67236328 -549.44910156 717.67236328 -549.4609375 716.63671875 C-549.44634811 712.93830743 -549.29014442 711.34146663 -547.1875 708.1875 C-547.40508641 705.2863479 -547.80923805 703.66443899 -549.625 701.375 C-551.12579743 699.98580558 -551.12579743 699.98580558 -553.1875 700.1875 C-553.455625 699.56875 -553.72375 698.95 -554 698.3125 C-555.14306848 695.8879767 -555.14306848 695.8879767 -558.1875 694.1875 C-562.84167169 693.84527555 -562.84167169 693.84527555 -567.1875 695.1875 Z " fill="#0F1B31" transform="translate(928.1875,176.8125)"/>
<path d="M0 0 C0.33 0 0.66 0 1 0 C0.98952637 0.89493164 0.97905273 1.78986328 0.96826172 2.71191406 C0.6124323 27.92958837 0.6124323 27.92958837 3 53 C3.11827148 53.78487793 3.23654297 54.56975586 3.35839844 55.37841797 C6.55972566 75.64941746 13.15659922 95.01606524 23 113 C23.46664063 113.93070313 23.93328125 114.86140625 24.4140625 115.8203125 C31.72424422 130.14142874 41.813982 142.56296336 53 154 C53.72316406 154.78503906 54.44632812 155.57007813 55.19140625 156.37890625 C96.41132093 200.10173795 168.43737957 218.54912159 226.46704102 220.28686523 C233.6080071 220.42358451 240.74711905 220.4295336 247.88908005 220.38631821 C249.97921029 220.37476954 252.0692984 220.36872984 254.15945435 220.36392212 C275.86661451 220.3051515 297.42133479 219.43314517 319.05619812 217.63487244 C328.43763798 216.86085729 337.82986478 216.29844454 347.22634888 215.74243164 C350.26367714 215.5616861 353.30068828 215.37630744 356.33764648 215.18945312 C366.6824357 214.55409403 377.02799101 213.93897263 387.37590027 213.35646057 C394.08453348 212.97683315 400.79242137 212.58524599 407.5 212.1875 C408.17381588 212.14776188 408.84763176 212.10802376 409.5418663 212.06708145 C429.79475485 210.8682579 449.8999138 209.04930661 470.0625 206.75 C501.01735062 203.24620513 531.11517651 202.2063339 562 207 C563.48167925 207.2076857 564.96344294 207.41477035 566.4453125 207.62109375 C575.25799205 208.93573277 583.83106744 211.15578342 592.4375 213.4375 C594.07332031 213.8701416 594.07332031 213.8701416 595.7421875 214.31152344 C614.96755635 219.56496725 614.96755635 219.56496725 619 225 C619.89446563 227.6833969 620.222574 229.66876649 620.43310547 232.4543457 C620.53875824 233.81184181 620.53875824 233.81184181 620.64654541 235.19676208 C620.7193573 236.17983841 620.79216919 237.16291473 620.8671875 238.17578125 C621.03074361 240.29150531 621.19431858 242.4072279 621.35791016 244.52294922 C621.44228333 245.63248962 621.52665649 246.74203003 621.61358643 247.88519287 C622.82185753 263.72643671 624.05078006 279.56539331 625.625 295.375 C625.79104736 297.07716675 625.79104736 297.07716675 625.96044922 298.8137207 C627.5906881 318.09108297 627.5906881 318.09108297 637.75 333.9375 C644.22050672 339.06552776 651.00964821 340.63098009 659.19140625 340.3359375 C667.98080357 339.28463268 674.9639783 335.05287975 682.1418457 330.17407227 C690.08487141 324.77913349 696.48091021 324.15817573 706 325 C712.7159581 326.69508208 717.13955137 331.44547152 721 337 C732.05783362 358.73436264 726.54066497 392.37276135 719.6875 414.5625 C713.29981405 433.22075592 704.45015052 450.64685871 692 466 C691.56929199 466.53222168 691.13858398 467.06444336 690.69482422 467.61279297 C676.30158301 485.29443596 659.36903145 499.33180832 640.51953125 512.0390625 C639.78565186 512.53486816 639.05177246 513.03067383 638.2956543 513.54150391 C636.87388776 514.49681077 635.44710987 515.44471099 634.01489258 516.38427734 C630.06609728 518.91490712 630.06609728 518.91490712 628 523 C629.32 522.67 630.64 522.34 632 522 C631 524 631 524 628.69140625 524.89453125 C627.65886719 525.19746094 626.62632812 525.50039062 625.5625 525.8125 C624.38171875 526.16054687 623.2009375 526.50859375 621.984375 526.8671875 C620.65676532 527.24659948 619.32861758 527.62413268 618 528 C616.96649414 528.29245605 616.96649414 528.29245605 615.91210938 528.59082031 C612.16794247 529.6452513 608.41963171 530.68351438 604.66796875 531.7109375 C601.62156876 532.54655773 598.58366253 533.40567299 595.55078125 534.2890625 C584.47469085 537.49208202 573.33492336 539.90450602 562 542 C560.71428101 542.24097412 560.71428101 542.24097412 559.40258789 542.48681641 C552.39116914 543.78553172 545.36227209 544.93020649 538.3125 546 C537.27544922 546.165 536.23839844 546.33 535.16992188 546.5 C515.38142099 549.4922364 495.57433795 550.33175311 475.58203125 550.26074219 C472.00243201 550.25000729 468.42333437 550.26072313 464.84375 550.2734375 C443.32770203 550.28829423 422.14238207 548.67016376 400.875 545.4375 C400.03714966 545.31095032 399.19929932 545.18440063 398.33605957 545.05401611 C311.18992911 531.71640464 227.24793868 493.36127931 153.51171875 428.265625 C152.13288947 427.02189097 150.74759583 425.78474783 149.3347168 424.57983398 C143.60890855 419.67881216 138.26878623 414.42151943 132.9543457 409.0847168 C131.4400742 407.56508332 129.9205257 406.05087483 128.40039062 404.53710938 C123.05631701 399.19701736 117.89179838 393.76145143 113 388 C112.05099753 386.91663682 111.10052896 385.83455574 110.1484375 384.75390625 C102.34695971 375.810104 95.08833544 366.5157898 88 357 C87.4622998 356.28328125 86.92459961 355.5665625 86.37060547 354.828125 C27.80060035 276.52353145 -4.18043859 178.12606816 -0.5859375 3.90625 C-0.39257812 2.6171875 -0.19921875 1.328125 0 0 Z M116 226 C116 226.66 116 227.32 116 228 C115.34 228 114.68 228 114 228 C113.34 229.98 112.68 231.96 112 234 C111.34 234 110.68 234 110 234 C108.33122279 235.68805632 108.33122279 235.68805632 106.625 237.8125 C104.76433718 240.06250857 103.13127297 241.90350285 100.7734375 243.63671875 C100.18820312 244.08660156 99.60296875 244.53648437 99 245 C99 245.66 99 246.32 99 247 C98.01 247.33 97.02 247.66 96 248 C94.565502 250.48182386 94.565502 250.48182386 93.375 253.4375 C92.94960938 254.42621094 92.52421875 255.41492188 92.0859375 256.43359375 C91.72757812 257.28050781 91.36921875 258.12742187 91 259 C90.67 259.66 90.34 260.32 90 261 C89.72448188 263.75518117 89.55393759 266.51017671 89.37890625 269.2734375 C89 272 89 272 87.9453125 274.05859375 C86.748853 276.51578537 86.94429258 278.00357848 87.3125 280.6875 C87.41175781 281.47511719 87.51101563 282.26273438 87.61328125 283.07421875 C87.814919 284.99960267 87.814919 284.99960267 89 286 C89.13335337 287.49239489 89.20343269 288.99054774 89.24609375 290.48828125 C89.27751465 291.41688965 89.30893555 292.34549805 89.34130859 293.30224609 C89.37305176 294.29562988 89.40479492 295.28901367 89.4375 296.3125 C89.91163863 310.68487042 89.91163863 310.68487042 93.75 324.4375 C95 328 95 328 94.375 330.875 C93 333 93 333 90 335 C89.26865583 338.04726738 89.43796901 340.92964549 90 344 C92.19381992 347.199326 92.19381992 347.199326 95 350 C96.08815929 351.72062733 97.05214629 353.48093402 98.0234375 355.26953125 C98.98146487 356.96715574 100.08450687 358.58028144 101.1875 360.1875 C102.7475338 362.60824211 103.56908075 364.19902491 104 367 C104.66 367 105.32 367 106 367 C106.23976563 367.57105469 106.47953125 368.14210938 106.7265625 368.73046875 C108.25396193 371.45261313 110.0974786 373.18252567 112.375 375.3125 C116.14612563 378.98039031 118.69534595 382.29048955 121 387 C121.66 387 122.32 387 123 387 C123.22558594 387.55171875 123.45117188 388.1034375 123.68359375 388.671875 C125.39553694 391.69952527 127.58657011 393.81325749 130.0625 396.25 C131.41021484 397.58804688 131.41021484 397.58804688 132.78515625 398.953125 C134.61976269 401.11311839 134.61976269 401.11311839 136 401 C136.01417969 399.90300781 136.02835938 398.80601562 136.04296875 397.67578125 C136.08988708 396.22131302 136.13813438 394.76688723 136.1875 393.3125 C136.19330078 392.59126953 136.19910156 391.87003906 136.20507812 391.12695312 C136.37060323 387.09917557 136.69541621 385.39388585 139.23828125 382.10546875 C141.83082707 380.12897342 143.97941473 379.12705568 147 378 C147.14942403 373.0379729 147.25771383 368.07728266 147.32958984 363.11352539 C147.35958059 361.42872274 147.4003887 359.7440738 147.45263672 358.05981445 C148.04676513 345.40305727 148.04676513 345.40305727 142.39697266 334.41381836 C141.59998894 333.60722404 140.80180342 332.80180342 140 332 C139.90108803 330.57044211 139.86920577 329.13609927 139.8671875 327.703125 C139.86589844 326.8265625 139.86460937 325.95 139.86328125 325.046875 C139.86714844 324.12390625 139.87101562 323.2009375 139.875 322.25 C139.86919922 320.88875 139.86919922 320.88875 139.86328125 319.5 C139.86457031 318.61828125 139.86585938 317.7365625 139.8671875 316.828125 C139.86831543 316.0227832 139.86944336 315.21744141 139.87060547 314.38769531 C140 312 140 312 140.57080078 309.26074219 C140.71243652 308.51469727 140.85407227 307.76865234 141 307 C140.67 306.67 140.34 306.34 140 306 C139.63021574 304.36197128 139.30331217 302.71412956 139 301.0625 C138.3496481 297.41467401 138.3496481 297.41467401 137 294 C136.75437541 289.57875735 136.94796836 286.86264779 139 283 C140.43042348 277.16827349 139.40913445 274.37422301 137 269 C136.64492631 266.66665863 136.44449204 264.37119527 136.30859375 262.015625 C136.09757344 259.68876998 136.09757344 259.68876998 134 257 C133.80501773 254.4537609 133.72094216 252.04256105 133.75 249.5 C133.73839844 248.48486328 133.73839844 248.48486328 133.7265625 247.44921875 C133.74115189 243.75080743 133.89735558 242.15396663 136 239 C135.78241359 236.0988479 135.37826195 234.47693899 133.5625 232.1875 C132.06170257 230.79830558 132.06170257 230.79830558 130 231 C129.731875 230.38125 129.46375 229.7625 129.1875 229.125 C128.04443152 226.7004767 128.04443152 226.7004767 125 225 C120.34582831 224.65777555 120.34582831 224.65777555 116 226 Z " fill="#4E6279" transform="translate(245,646)"/>
<path d="M0 0 C1.48408026 -0.0069837 2.96816025 -0.01402461 4.45223999 -0.02111816 C9.16347638 -0.04036681 13.87466606 -0.04529372 18.5859375 -0.046875 C19.79023407 -0.04775871 19.79023407 -0.04775871 21.01885986 -0.04866028 C45.10057881 -0.06112929 69.00461715 0.25544728 92.95947266 2.97851562 C94.97330793 3.20451324 96.98817297 3.41666051 99.00390625 3.625 C145.10611971 8.42738669 190.7495774 18.35763859 234.9609375 32.203125 C235.62440186 32.41088562 236.28786621 32.61864624 236.97143555 32.83270264 C257.69181957 39.34784307 277.94629641 46.76802689 297.9609375 55.203125 C299.05438477 55.66235352 300.14783203 56.12158203 301.27441406 56.59472656 C329.74293317 68.65269151 357.80898504 82.42322494 384.21191406 98.52929688 C387.08355495 100.27778443 389.97001228 101.99972607 392.859375 103.71875 C405.21525971 111.10566315 417.1909826 118.91767791 428.9609375 127.203125 C430.14442203 128.02750057 431.32800826 128.85173016 432.51171875 129.67578125 C457.69707151 147.32865421 481.7638441 166.74947813 504.2956543 187.68139648 C505.52280836 188.8027645 506.7633137 189.90956388 508.01098633 191.00805664 C515.33685854 197.48213612 522.24804617 204.33780925 529.14819336 211.26000977 C531.15170736 213.26890364 533.16053902 215.27236889 535.16992188 217.27539062 C541.31519411 223.41747241 547.33676513 229.5747433 552.9609375 236.203125 C554.73458911 238.15786831 556.53679805 240.08411643 558.3359375 242.015625 C562.55046976 246.58262711 566.56390363 251.26591862 570.4609375 256.109375 C572.35998397 258.459445 574.27552446 260.78956122 576.2109375 263.109375 C583.56799389 271.93866057 590.6735969 280.89858812 597.46777344 290.16845703 C598.97043109 292.21606149 600.48502284 294.25446885 602 296.29296875 C615.59474478 314.71776131 628.02401984 334.03794043 639.56347656 353.80957031 C640.49058534 355.39751134 641.42218919 356.98283698 642.35839844 358.56542969 C662.83230572 393.19062889 679.86605559 429.54184575 693.9609375 467.203125 C694.64518799 469.03133789 694.64518799 469.03133789 695.34326172 470.89648438 C715.97663275 526.34838661 729.13511211 584.14552305 735.70379639 642.91595459 C735.94955468 645.10187923 736.20492171 647.28650616 736.46142578 649.47119141 C741.89639426 696.82708636 741.77174575 747.70623364 736.21417236 795.04095459 C735.94874253 797.30724813 735.69437123 799.57462291 735.44091797 801.84228516 C725.08890737 893.28387414 697.50831807 981.31836296 636.9609375 1093.203125 C636.15124512 1094.55180664 636.15124512 1094.55180664 635.32519531 1095.92773438 C617.07578289 1126.21399329 596.52370874 1155.44158306 573.4609375 1182.26953125 C571.13469175 1184.99923525 568.88667597 1187.77621251 566.6484375 1190.578125 C562.3634305 1195.85138587 557.76789737 1200.79694439 553.09643555 1205.72607422 C550.23625358 1208.74631503 547.43375359 1211.79273994 544.72290039 1214.94824219 C541.0852924 1219.11621482 537.25651363 1223.05236278 533.33984375 1226.95703125 C532.63625229 1227.66157944 531.93266083 1228.36612762 531.20774841 1229.09202576 C529.73079102 1230.56965867 528.25259008 1232.04604957 526.77319336 1233.52124023 C524.52928665 1235.75978981 522.29077046 1238.00362973 520.05273438 1240.24804688 C518.60709132 1241.69302904 517.16113805 1243.13770092 515.71484375 1244.58203125 C514.72696617 1245.57294518 514.72696617 1245.57294518 513.71913147 1246.58387756 C509.83471208 1250.44908979 505.84158342 1254.13398143 501.69049072 1257.71168518 C499.4712071 1259.62543257 497.31121703 1261.60094301 495.1484375 1263.578125 C490.91004907 1267.39909638 486.56214647 1271.04559831 482.125 1274.6328125 C479.7480894 1276.55492961 477.39417807 1278.50277769 475.046875 1280.4609375 C433.72380482 1314.88325144 387.65759802 1344.58469036 339.27392578 1368.07324219 C336.56688116 1369.39561948 333.8721305 1370.74188972 331.17578125 1372.0859375 C258.4583813 1408.04430248 178.61329555 1430.3351861 98.00201416 1438.98309326 C96.64359014 1439.12953382 95.28546946 1439.27881684 93.92767334 1439.43096924 C44.8952436 1444.92116572 -7.02813533 1444.86500268 -56.0390625 1439.203125 C-56.7908075 1439.11826843 -57.54255249 1439.03341187 -58.31707764 1438.94598389 C-138.13207416 1429.8988699 -216.70577792 1408.3231442 -289.0390625 1373.203125 C-289.68723938 1372.88945984 -290.33541626 1372.57579468 -291.00323486 1372.25262451 C-309.14486935 1363.46859866 -326.98233434 1354.375924 -344.22558594 1343.90917969 C-347.12575354 1342.15055671 -350.03836599 1340.41400259 -352.953125 1338.6796875 C-365.30185866 1331.29426141 -377.27999194 1323.49280202 -389.0390625 1315.203125 C-389.67102539 1314.7601709 -390.30298828 1314.3172168 -390.95410156 1313.86083984 C-405.47935543 1303.66967116 -419.55203822 1292.95036007 -433.24951172 1281.67236328 C-434.87217509 1280.34014115 -436.50394348 1279.01902827 -438.13671875 1277.69921875 C-443.47423897 1273.38265879 -448.64337533 1268.93052585 -453.71875 1264.30859375 C-455.74060434 1262.47394815 -457.78584772 1260.67543714 -459.8515625 1258.890625 C-470.44407352 1249.63459806 -480.5249756 1239.87992065 -490.45263672 1229.91992188 C-492.4295226 1227.93762256 -494.41177289 1225.96079867 -496.39453125 1223.984375 C-502.49025959 1217.89184283 -508.46886048 1211.78609102 -514.0390625 1205.203125 C-515.65874067 1203.42742279 -517.28317968 1201.65604193 -518.9140625 1199.890625 C-523.36092727 1195.00975691 -527.56335151 1189.97936976 -531.70654297 1184.84033203 C-533.22127854 1182.97924432 -534.75578035 1181.13555294 -536.29296875 1179.29296875 C-544.18839638 1169.81625937 -551.78617749 1160.18075577 -559.0390625 1150.203125 C-559.49925781 1149.57067871 -559.95945312 1148.93823242 -560.43359375 1148.28662109 C-574.38061504 1129.02107021 -587.71363342 1109.16241906 -599.65332031 1088.58935547 C-601.04980613 1086.1846246 -602.46203512 1083.78960827 -603.875 1081.39453125 C-644.30798971 1012.31468649 -672.59066326 935.45898226 -695.81903076 799.20196533 C-696.03739449 797.21827777 -696.26694645 795.23583229 -696.49658203 793.25341797 C-701.89546767 745.73382552 -701.86440166 694.85314756 -696.29229736 647.36853027 C-696.02651361 645.09581975 -695.7722547 642.82199506 -695.51904297 640.54785156 C-686.79245158 563.14188472 -665.93086865 486.47120147 -632.40429688 416.07763672 C-630.96892994 413.05546035 -629.5580589 410.02254308 -628.1484375 406.98828125 C-621.8904207 393.6176649 -615.04213876 380.71856846 -607.62841797 367.95556641 C-606.07886391 365.27205297 -604.55640239 362.57511514 -603.04296875 359.87109375 C-577.39007614 314.14257921 -545.45540638 271.26936514 -509.65649414 232.96411133 C-508.485983 231.6897118 -507.33078345 230.4011923 -506.18530273 229.10424805 C-499.8564321 221.94811255 -493.17297922 215.18431745 -486.40942383 208.44311523 C-484.47295701 206.51202953 -482.54192294 204.57562618 -480.61132812 202.63867188 C-474.58817483 196.61227546 -468.54361758 190.71383237 -462.0390625 185.203125 C-460.26336029 183.58344683 -458.49197943 181.95900782 -456.7265625 180.328125 C-452.23892818 176.23555065 -447.62976022 172.35041666 -442.90234375 168.5390625 C-440.38551952 166.48577343 -437.91442571 164.38842686 -435.45410156 162.26806641 C-428.28359741 156.10475372 -420.82032851 150.40897588 -413.20751953 144.80517578 C-410.97501894 143.15580977 -408.75439134 141.49138163 -406.53515625 139.82421875 C-394.98342437 131.17924758 -383.13631877 123.06413277 -371.0390625 115.203125 C-370.26127441 114.69571777 -369.48348633 114.18831055 -368.68212891 113.66552734 C-345.63058529 98.68128342 -321.59981369 85.51276007 -297.0390625 73.203125 C-295.9680127 72.66558594 -294.89696289 72.12804687 -293.79345703 71.57421875 C-268.63419635 59.02799783 -242.56564775 48.48934273 -216.0390625 39.203125 C-215.38778381 38.97451782 -214.73650513 38.74591064 -214.06549072 38.51037598 C-145.90737538 14.65411602 -72.34981774 0.21342479 0 0 Z M-68.4140625 33.578125 C-70.13898863 33.80174404 -71.8639237 34.02529415 -73.58886719 34.2487793 C-78.40856524 34.87917196 -83.22462129 35.53384609 -88.0390625 36.203125 C-89.20663086 36.36538574 -90.37419922 36.52764648 -91.57714844 36.69482422 C-135.70205443 43.02737099 -180.70017564 54.76129413 -222.02294922 71.40478516 C-224.58317837 72.41858382 -227.16422713 73.3683243 -229.75024414 74.31396484 C-258.61891963 84.89804105 -286.84664355 97.71736795 -313.61621094 112.84326172 C-315.91476191 114.13335935 -318.22640589 115.3943798 -320.546875 116.64453125 C-353.27771046 134.34820841 -384.05779587 155.91063641 -413.0390625 179.203125 C-413.9671875 179.94820312 -414.8953125 180.69328125 -415.8515625 181.4609375 C-426.49724557 190.09508162 -436.88757535 199.01867453 -446.93847656 208.33813477 C-448.88444132 210.1406149 -450.84013172 211.929737 -452.80493164 213.71191406 C-459.64989489 219.92248336 -466.29204891 226.29869238 -472.8137207 232.84741211 C-474.36490977 234.40401889 -475.92145642 235.95512671 -477.47851562 237.50585938 C-482.33470522 242.35882242 -487.09112084 247.25499321 -491.55639648 252.4753418 C-493.77146019 255.05660408 -496.09573014 257.52672465 -498.4140625 260.015625 C-502.70657458 264.66216628 -506.77244281 269.4441174 -510.73828125 274.375 C-512.77723878 276.88129076 -514.8628135 279.33906818 -516.97216797 281.78613281 C-523.72341902 289.63909244 -529.91669256 297.85496611 -536.0390625 306.203125 C-536.54663086 306.88971191 -537.05419922 307.57629883 -537.57714844 308.28369141 C-551.35240051 326.93025501 -564.28277231 346.21871933 -576.0390625 366.203125 C-576.7494165 367.4096875 -576.7494165 367.4096875 -577.47412109 368.640625 C-585.45186046 382.25820842 -592.92973711 396.11361529 -600.0390625 410.203125 C-600.58820313 411.29061035 -601.13734375 412.3780957 -601.703125 413.49853516 C-608.87996052 427.80919434 -615.49824695 442.27855665 -621.6015625 457.078125 C-621.89133972 457.77797516 -622.18111694 458.47782532 -622.47967529 459.19888306 C-625.9611524 467.63901988 -629.07896721 476.12150269 -631.89916992 484.80444336 C-633.16263502 488.57156644 -634.61402905 492.22639653 -636.12304688 495.89990234 C-637.7043899 499.87601912 -639.00218869 503.93635436 -640.2890625 508.015625 C-640.58353271 508.94866455 -640.87800293 509.8817041 -641.18139648 510.84301758 C-647.88484716 532.37238668 -653.48039249 554.12359897 -658.0390625 576.203125 C-658.29429687 577.42757324 -658.54953125 578.65202148 -658.8125 579.91357422 C-666.62697108 617.71414379 -672.13322871 656.73022484 -672.2421875 695.38671875 C-672.24912103 696.92029345 -672.25611616 698.45386786 -672.26316833 699.98744202 C-672.28236113 704.87183928 -672.28708684 709.75619448 -672.2890625 714.640625 C-672.28979893 715.47052948 -672.29053535 716.30043396 -672.2912941 717.15548706 C-672.30949853 742.30359675 -671.82559079 767.18607674 -669.0390625 792.203125 C-668.79533455 794.61833463 -668.55309137 797.03369466 -668.3125 799.44921875 C-666.82531669 813.80171804 -664.60820026 828.00789802 -662.0390625 842.203125 C-661.76473389 843.74105713 -661.76473389 843.74105713 -661.48486328 845.31005859 C-657.26011315 868.82092043 -651.97989604 892.12545062 -644.76416016 914.90869141 C-644.03514817 917.21551115 -643.32266832 919.52692101 -642.61328125 921.83984375 C-632.85750668 953.46166704 -620.82169426 984.12545205 -607.0390625 1014.203125 C-606.61270508 1015.14236816 -606.18634766 1016.08161133 -605.74707031 1017.04931641 C-599.71802028 1030.290755 -592.84277934 1042.9167078 -585.57470703 1055.51513672 C-583.73437352 1058.73645182 -581.95466285 1061.98805453 -580.1809082 1065.24633789 C-561.96867066 1098.61759577 -539.34633782 1130.24167695 -514.65234375 1159.12109375 C-512.24824937 1161.93947529 -509.92138256 1164.81484453 -507.6015625 1167.703125 C-502.88263127 1173.50259862 -497.81357113 1178.94081821 -492.70483398 1184.39379883 C-491.51320297 1185.68812353 -490.33731227 1186.99701035 -489.17211914 1188.31518555 C-482.84761579 1195.46696014 -476.16862315 1202.22627422 -469.40942383 1208.96313477 C-467.47295701 1210.89422047 -465.54192294 1212.83062382 -463.61132812 1214.76757812 C-457.58817483 1220.79397454 -451.54361758 1226.69241763 -445.0390625 1232.203125 C-443.26336029 1233.82280317 -441.49197943 1235.44724218 -439.7265625 1237.078125 C-435.31553077 1241.09693093 -430.80170892 1244.93177824 -426.15625 1248.67578125 C-423.82668308 1250.55360416 -421.52648853 1252.46336617 -419.234375 1254.38671875 C-408.81351362 1263.10823132 -398.06871631 1271.26881446 -387.0390625 1279.203125 C-385.9881543 1279.96423584 -385.9881543 1279.96423584 -384.91601562 1280.74072266 C-365.6631169 1294.66649664 -345.64831689 1307.38651418 -325.0390625 1319.203125 C-323.91419434 1319.84942871 -323.91419434 1319.84942871 -322.76660156 1320.50878906 C-317.56461846 1323.48303291 -312.31701692 1326.36609883 -307.0390625 1329.203125 C-306.06936523 1329.72487305 -305.09966797 1330.24662109 -304.10058594 1330.78417969 C-286.73940536 1340.0731349 -269.11731872 1348.41913837 -251.0390625 1356.203125 C-250.04003906 1356.63496094 -249.04101562 1357.06679687 -248.01171875 1357.51171875 C-234.78684795 1363.18988687 -221.34895274 1367.94769337 -207.65332031 1372.35961914 C-201.68562739 1374.28513082 -195.77668073 1376.28844236 -189.9140625 1378.515625 C-181.73568285 1381.46055129 -173.36787787 1383.55283528 -164.9453125 1385.67578125 C-160.72190482 1386.74297681 -156.54821831 1387.92859174 -152.37109375 1389.1640625 C-145.10924218 1391.25640149 -137.79440954 1392.84365157 -130.39038086 1394.33081055 C-128.23751328 1394.76342447 -126.0864563 1395.20424819 -123.93554688 1395.64648438 C-113.99952476 1397.67593909 -104.03100489 1399.47317861 -94.0390625 1401.203125 C-92.56295335 1401.46557385 -91.0869607 1401.72867884 -89.61108398 1401.99243164 C-36.15345147 1411.51394117 20.96505564 1413.77505601 74.9609375 1408.203125 C75.98773621 1408.09777435 75.98773621 1408.09777435 77.03527832 1407.99029541 C88.02650304 1406.85653274 98.99798624 1405.58277728 109.9609375 1404.203125 C110.91162109 1404.08356445 111.86230469 1403.96400391 112.84179688 1403.84082031 C118.57284214 1403.09756823 124.26661907 1402.18718289 129.9609375 1401.203125 C130.59906372 1401.09333313 131.23718994 1400.98354126 131.89465332 1400.87042236 C163.92224745 1395.34578674 195.00858153 1388.25592091 225.9609375 1378.203125 C227.16830566 1377.81785645 228.37567383 1377.43258789 229.61962891 1377.03564453 C308.25912738 1351.93748743 382.61774876 1313.08362671 446.9609375 1261.203125 C447.90195313 1260.44515625 448.84296875 1259.6871875 449.8125 1258.90625 C459.93628962 1250.67884748 469.88901884 1242.28362491 479.4921875 1233.453125 C481.55365082 1231.57432299 483.6461188 1229.75593746 485.7734375 1227.953125 C491.61643906 1222.88595767 496.96585665 1217.27431974 502.40136719 1211.77905273 C506.0319423 1208.11039864 509.69508199 1204.47474914 513.359375 1200.83984375 C515.01829448 1199.19016984 516.67714682 1197.54042842 518.3359375 1195.890625 C519.5734375 1194.66569336 519.5734375 1194.66569336 520.8359375 1193.41601562 C525.76111318 1188.5103843 530.45028351 1183.49051551 534.9609375 1178.203125 C536.02996108 1176.97673986 537.10025823 1175.75146361 538.171875 1174.52734375 C560.82560381 1148.52299336 581.09939149 1121.061192 599.9609375 1092.203125 C600.51168945 1091.36104492 601.06244141 1090.51896484 601.62988281 1089.65136719 C639.21563305 1031.8942049 666.70069653 967.53865373 684.9609375 901.203125 C685.2506543 900.15656738 685.54037109 899.11000977 685.83886719 898.03173828 C696.06191406 860.79063897 702.62608885 822.57118298 706.2734375 784.140625 C706.35474915 783.29036743 706.43606079 782.44010986 706.51983643 781.56408691 C708.51959374 760.32176166 709.22502348 739.0974561 709.2734375 717.765625 C709.27638824 716.60535797 709.27933899 715.44509094 709.28237915 714.24966431 C709.29556712 691.16854451 707.71960963 668.40384626 705.2076416 645.47161865 C704.85892098 642.2650627 704.53339189 639.05615814 704.203125 635.84765625 C699.83441615 595.19803913 691.61066249 553.36548726 678.13671875 514.69921875 C676.80255596 510.73218985 675.66263963 506.72926609 674.5234375 502.703125 C672.76973663 496.57449647 670.69488201 490.72415195 668.24658203 484.83422852 C666.7148232 481.13752618 665.33236006 477.43091511 664.06616211 473.63183594 C643.61544159 412.64606755 608.87562213 354.03279511 569.9609375 303.203125 C569.37618652 302.43581055 568.79143555 301.66849609 568.18896484 300.87792969 C561.13414085 291.64024 553.91470017 282.57877789 546.31738281 273.78173828 C544.91414434 272.14866774 543.52615812 270.50357891 542.140625 268.85546875 C529.51926173 253.88475713 515.8462146 239.99430085 502.0234375 226.140625 C501.34163422 225.45614288 500.65983093 224.77166077 499.95736694 224.06643677 C493.13788281 217.22666235 486.35473456 210.4284391 478.9609375 204.203125 C477.35325377 202.74866983 475.74854035 201.29091605 474.1484375 199.828125 C468.89956524 195.09697155 463.45531674 190.64435715 457.9609375 186.203125 C456.72973663 185.19229733 455.49931132 184.18052451 454.26953125 183.16796875 C435.0212349 167.3547383 414.84677546 152.77790284 393.9609375 139.203125 C393.24744141 138.73938477 392.53394531 138.27564453 391.79882812 137.79785156 C372.15057871 125.08677577 351.79665964 113.83871956 330.9609375 103.203125 C330.21473145 102.82172363 329.46852539 102.44032227 328.69970703 102.04736328 C324.78841453 100.054506 320.8628103 98.09364592 316.91992188 96.1640625 C315.59618241 95.51473068 314.27461057 94.86096396 312.95507812 94.203125 C289.81887483 82.68953844 265.70288158 73.60326764 241.2734375 65.265625 C240.36570587 64.9546991 239.45797424 64.64377319 238.5227356 64.32342529 C226.20702426 60.1199385 213.81391229 56.33914858 201.27709961 52.85281372 C199.19659181 52.26922657 197.12169415 51.67038029 195.04882812 51.06030273 C186.85415063 48.65716645 178.6176932 46.64223132 170.2734375 44.828125 C169.59618622 44.68071869 168.91893494 44.53331238 168.22116089 44.38143921 C145.95253778 39.55978616 123.5132638 35.7307776 100.8984375 32.953125 C99.67777588 32.80206299 98.45711426 32.65100098 97.19946289 32.49536133 C93.12338867 32.01994 89.04517487 31.60089973 84.9609375 31.203125 C84.09789001 31.1155896 83.23484253 31.0280542 82.34564209 30.93786621 C63.47810778 29.07377097 44.68738244 28.89058315 25.74951172 28.94238281 C21.56393336 28.95373931 17.3786104 28.94700994 13.19304085 28.93551445 C-14.17282706 28.87157262 -41.25319876 29.97596656 -68.4140625 33.578125 Z " fill="#0F1B31" transform="translate(699.0390625,-0.203125)"/>
<path d="M0 0 C3.44786924 3.01828035 6.00717282 6.23278564 8.4140625 10.11328125 C9.0328125 11.02078125 9.6515625 11.92828125 10.2890625 12.86328125 C12.45328178 19.11547027 12.14156124 25.54563862 10.3515625 31.86328125 C2.9321433 44.30875862 -9.09418449 51.91175368 -22.7734375 56.0859375 C-46.46678255 61.77128257 -71.13210431 58.64165315 -92.21875 46.5703125 C-99.3450902 42.18396779 -104.89847984 36.17565423 -107.5859375 28.11328125 C-108.47245101 20.11221631 -108.07327509 14.00590638 -103.390625 7.31640625 C-79.94280836 -21.30820107 -27.73786875 -21.22306672 0 0 Z " fill="#3D5169" transform="translate(534.5859375,764.88671875)"/>
<path d="M0 0 C3.04187577 2.21426632 4.90811093 4.90667467 7 8 C7.96736045 9.13516788 8.94527356 10.26150144 9.9375 11.375 C12 14 12 14 12 16 C10.68 16.33 9.36 16.66 8 17 C8.66 17 9.32 17 10 17 C9.855625 17.78375 9.71125 18.5675 9.5625 19.375 C8.97081115 23.18810591 8.60735751 26.98471503 8.28125 30.828125 C8 33 8 33 7 35 C7.99 35.33 8.98 35.66 10 36 C10.18175781 36.99580078 10.18175781 36.99580078 10.3671875 38.01171875 C11.66612583 46.20388622 11.66612583 46.20388622 16 53 C15.46428571 56.53571429 15.46428571 56.53571429 14 58 C14 58.99 14 59.98 14 61 C13.49912169 63.14662134 12.92547377 65.25745424 12.3125 67.375 C11.91563224 70.70868917 12.88771955 72.85944344 14 76 C14 77.66666667 14 79.33333333 14 81 C14.99 81.99 14.99 81.99 16 83 C16.625 85.625 16.625 85.625 17 88 C15.02 88.99 15.02 88.99 13 90 C13.66 90 14.32 90 15 90 C15.07407957 94.1484561 15.04918376 98.13498932 14.5 102.25 C13.91189085 106.03028752 13.91189085 106.03028752 14 110 C14.66 110 15.32 110 16 110 C17.32421875 111.3203125 17.32421875 111.3203125 18.6875 113.125 C19.37392578 113.99511719 19.37392578 113.99511719 20.07421875 114.8828125 C21.36618131 117.8374273 20.53470744 119.83234833 20 123 C19.94316352 125.38475688 19.93779161 127.77107072 19.97265625 130.15625 C19.98529834 131.52213292 19.9976596 132.88801847 20.00976562 134.25390625 C20.03456913 136.38013132 20.06259749 138.50621541 20.09594727 140.63232422 C20.12631819 142.70280808 20.14396863 144.7731133 20.16015625 146.84375 C20.17699463 148.07287109 20.19383301 149.30199219 20.21118164 150.56835938 C19.99302088 154.11340864 19.48685869 156.77423209 18 160 C14.4375 161.25 14.4375 161.25 11 162 C9.3501993 165.29960141 9.61741639 168.99127884 9.4375 172.625 C9.37272461 173.82769531 9.37272461 173.82769531 9.30664062 175.0546875 C9.20048543 177.0362511 9.09973145 179.01810271 9 181 C5.71303767 181.79953138 4.28976808 182.09658936 1 181 C1 180.01 1 179.02 1 178 C-0.32 177.67 -1.64 177.34 -3 177 C-3 176.01 -3 175.02 -3 174 C-3.66 174 -4.32 174 -5 174 C-6.625 172.6875 -6.625 172.6875 -8 171 C-8 170.01 -8 169.02 -8 168 C-8.61875 167.7525 -9.2375 167.505 -9.875 167.25 C-12.37818306 165.77753937 -12.83045281 164.58971163 -14 162 C-14.66 161.67 -15.32 161.34 -16 161 C-16.33 160.01 -16.66 159.02 -17 158 C-17.66 157.67 -18.32 157.34 -19 157 C-19 156.34 -19 155.68 -19 155 C-20.32 154.34 -21.64 153.68 -23 153 C-23 152.01 -23 151.02 -23 150 C-20 150 -20 150 -17.84375 151.828125 C-17.0703125 152.62734375 -16.296875 153.4265625 -15.5 154.25 C-14.7265625 155.03890625 -13.953125 155.8278125 -13.15625 156.640625 C-8 162.2826087 -8 162.2826087 -8 166 C-7.34 166 -6.68 166 -6 166 C-4.44921875 167.57421875 -4.44921875 167.57421875 -2.6875 169.6875 C0.05829513 172.96394318 2.95046686 176.00295452 6 179 C6.01417969 177.97519531 6.02835937 176.95039062 6.04296875 175.89453125 C6.08989016 174.53381029 6.13813744 173.17313459 6.1875 171.8125 C6.19330078 171.13896484 6.19910156 170.46542969 6.20507812 169.77148438 C6.37104103 165.99121811 6.8902218 164.1404318 9.23828125 161.13671875 C11.83509156 159.12758828 13.95912327 158.13207506 17 157 C17.14942403 152.0379729 17.25771383 147.07728266 17.32958984 142.11352539 C17.35958059 140.42872274 17.4003887 138.7440738 17.45263672 137.05981445 C18.04676513 124.40305727 18.04676513 124.40305727 12.39697266 113.41381836 C11.59998894 112.60722404 10.80180342 111.80180342 10 111 C9.90108803 109.57044211 9.86920577 108.13609927 9.8671875 106.703125 C9.86589844 105.8265625 9.86460937 104.95 9.86328125 104.046875 C9.86714844 103.12390625 9.87101562 102.2009375 9.875 101.25 C9.86919922 99.88875 9.86919922 99.88875 9.86328125 98.5 C9.86457031 97.61828125 9.86585938 96.7365625 9.8671875 95.828125 C9.86831543 95.0227832 9.86944336 94.21744141 9.87060547 93.38769531 C10 91 10 91 10.57080078 88.26074219 C10.71243652 87.51469727 10.85407227 86.76865234 11 86 C10.67 85.67 10.34 85.34 10 85 C9.63021574 83.36197128 9.30331217 81.71412956 9 80.0625 C8.3496481 76.41467401 8.3496481 76.41467401 7 73 C6.75437541 68.57875735 6.94796836 65.86264779 9 62 C10.43042348 56.16827349 9.40913445 53.37422301 7 48 C6.64492631 45.66665863 6.44449204 43.37119527 6.30859375 41.015625 C6.09757344 38.68876998 6.09757344 38.68876998 4 36 C3.80501773 33.4537609 3.72094216 31.04256105 3.75 28.5 C3.73839844 27.48486328 3.73839844 27.48486328 3.7265625 26.44921875 C3.74115189 22.75080743 3.89735558 21.15396663 6 18 C5.90520795 14.39790198 5.09265168 13.10517218 2.6875 10.375 C1.800625 9.59125 0.91375 8.8075 0 8 C-0.5775 7.401875 -1.155 6.80375 -1.75 6.1875 C-5.33598327 4.29489772 -9.02658614 4.77076458 -13 5 C-13 5.66 -13 6.32 -13 7 C-13.66 7 -14.32 7 -15 7 C-15.66 8.98 -16.32 10.96 -17 13 C-17.66 13 -18.32 13 -19 13 C-19.25523437 13.58265625 -19.51046875 14.1653125 -19.7734375 14.765625 C-21.11741087 17.21388223 -22.61810296 18.81743248 -24.625 20.75 C-25.57246094 21.67039062 -25.57246094 21.67039062 -26.5390625 22.609375 C-27.02117187 23.06828125 -27.50328125 23.5271875 -28 24 C-28.66 23.67 -29.32 23.34 -30 23 C-29.67 21.35 -29.34 19.7 -29 18 C-28.34 18 -27.68 18 -27 18 C-27 17.34 -27 16.68 -27 16 C-26.01 16 -25.02 16 -24 16 C-23.74089844 15.27167969 -23.48179687 14.54335938 -23.21484375 13.79296875 C-21.95985334 10.90770141 -20.50772143 8.77644715 -18.5625 6.3125 C-17.66724609 5.16201172 -17.66724609 5.16201172 -16.75390625 3.98828125 C-12.16010013 -1.21939652 -6.50223398 -1.24815905 0 0 Z " fill="#0B1239" transform="translate(374,867)"/>
<path d="M0 0 C0 0.66 0 1.32 0 2 C-0.99 2.495 -0.99 2.495 -2 3 C-2.91773806 4.78115518 -3.76226813 6.60054984 -4.5625 8.4375 C-4.99691406 9.42621094 -5.43132812 10.41492188 -5.87890625 11.43359375 C-6.43384766 12.70396484 -6.43384766 12.70396484 -7 14 C-7.33 14.66 -7.66 15.32 -8 16 C-8.27551812 18.75518117 -8.44606241 21.51017671 -8.62109375 24.2734375 C-9 27 -9 27 -10.0546875 29.05859375 C-11.251147 31.51578537 -11.05570742 33.00357848 -10.6875 35.6875 C-10.58824219 36.47511719 -10.48898437 37.26273438 -10.38671875 38.07421875 C-10.185081 39.99960267 -10.185081 39.99960267 -9 41 C-8.86664663 42.49239489 -8.79656731 43.99054774 -8.75390625 45.48828125 C-8.72248535 46.41688965 -8.69106445 47.34549805 -8.65869141 48.30224609 C-8.62694824 49.29562988 -8.59520508 50.28901367 -8.5625 51.3125 C-8.08836137 65.68487042 -8.08836137 65.68487042 -4.25 79.4375 C-3 83 -3 83 -3.5625 85.875 C-5.18127667 88.26797421 -6.42175977 88.82951057 -9 90 C-8.85831863 91.43791516 -8.71148957 92.8753237 -8.5625 94.3125 C-8.44068359 95.51326172 -8.44068359 95.51326172 -8.31640625 96.73828125 C-8.04734307 99.16087179 -8.04734307 99.16087179 -7 102 C-8.8828125 101.796875 -8.8828125 101.796875 -11 101 C-13.1558584 96.92949813 -14.33699702 92.58388598 -13.375 88.0625 C-12.06795044 86.10192566 -10.78168074 84.53872427 -9 83 C-9.4640625 81.6696875 -9.4640625 81.6696875 -9.9375 80.3125 C-11.65084974 74.97088023 -12.52490493 72.19833368 -10 67 C-10.66 66.67 -11.32 66.34 -12 66 C-13.17553992 60.71007037 -13.01065356 55.1979463 -12.875 49.8125 C-12.82016122 45.89900551 -12.97923712 44.04816988 -14.5625 40.375 C-16.56689087 35.66903883 -15.82018251 31.94545689 -15 27 C-14.814375 25.80375 -14.62875 24.6075 -14.4375 23.375 C-14.293125 22.59125 -14.14875 21.8075 -14 21 C-13.34 21 -12.68 21 -12 21 C-12.33 18.03 -12.66 15.06 -13 12 C-11.35 11.67 -9.7 11.34 -8 11 C-8.66 10.67 -9.32 10.34 -10 10 C-9.67 8.68 -9.34 7.36 -9 6 C-8.01 6 -7.02 6 -6 6 C-5.896875 5.38125 -5.79375 4.7625 -5.6875 4.125 C-4.72223986 1.14146864 -3.16449578 0 0 0 Z " fill="#1D2951" transform="translate(344,891)"/>
<path d="M0 0 C2.84607392 2.84607392 2.2584429 4.7857176 2.265625 8.765625 C2.26849518 9.77215118 2.26849518 9.77215118 2.27142334 10.79901123 C2.27278535 12.22131728 2.26908778 13.64363575 2.26074219 15.06591797 C2.25010904 17.22782931 2.26060147 19.38889697 2.2734375 21.55078125 C2.2721146 22.93489765 2.26954951 24.31901353 2.265625 25.703125 C2.26336914 26.95770508 2.26111328 28.21228516 2.25878906 29.50488281 C1.9959449 33.05476682 1.48756567 35.76589974 0 39 C-3.5625 40.25 -3.5625 40.25 -7 41 C-8.6498007 44.29960141 -8.38258361 47.99127884 -8.5625 51.625 C-8.62727539 52.82769531 -8.62727539 52.82769531 -8.69335938 54.0546875 C-8.79951457 56.0362511 -8.90026855 58.01810271 -9 60 C-12.28696233 60.79953138 -13.71023192 61.09658936 -17 60 C-17 59.01 -17 58.02 -17 57 C-18.32 56.67 -19.64 56.34 -21 56 C-21 55.01 -21 54.02 -21 53 C-21.66 53 -22.32 53 -23 53 C-24.625 51.6875 -24.625 51.6875 -26 50 C-26 49.01 -26 48.02 -26 47 C-26.61875 46.7525 -27.2375 46.505 -27.875 46.25 C-30.37818306 44.77753937 -30.83045281 43.58971163 -32 41 C-32.66 40.67 -33.32 40.34 -34 40 C-34.495 38.515 -34.495 38.515 -35 37 C-35.66 36.67 -36.32 36.34 -37 36 C-37 35.34 -37 34.68 -37 34 C-38.32 33.34 -39.64 32.68 -41 32 C-41 31.01 -41 30.02 -41 29 C-38 29 -38 29 -35.84375 30.828125 C-34.68359375 32.02695312 -34.68359375 32.02695312 -33.5 33.25 C-32.7265625 34.03890625 -31.953125 34.8278125 -31.15625 35.640625 C-26 41.2826087 -26 41.2826087 -26 45 C-25.34 45 -24.68 45 -24 45 C-22.44921875 46.57421875 -22.44921875 46.57421875 -20.6875 48.6875 C-17.94170487 51.96394318 -15.04953314 55.00295452 -12 58 C-11.98582031 56.97519531 -11.97164063 55.95039062 -11.95703125 54.89453125 C-11.91010984 53.53381029 -11.86186256 52.17313459 -11.8125 50.8125 C-11.80669922 50.13896484 -11.80089844 49.46542969 -11.79492188 48.77148438 C-11.62895897 44.99121811 -11.1097782 43.1404318 -8.76171875 40.13671875 C-6 38 -6 38 -1 36 C-0.67 24.12 -0.34 12.24 0 0 Z " fill="#1E2D44" transform="translate(392,988)"/>
<path d="M0 0 C1.32 0.33 2.64 0.66 4 1 C3.690625 1.886875 3.38125 2.77375 3.0625 3.6875 C1.18569453 9.53871706 0.92715299 12.1472555 3 18 C3 19.66666667 3 21.33333333 3 23 C3.66 23.66 4.32 24.32 5 25 C5.625 27.625 5.625 27.625 6 30 C4.02 30.99 4.02 30.99 2 32 C2.66 32 3.32 32 4 32 C4.07407957 36.1484561 4.04918376 40.13498932 3.5 44.25 C2.91189085 48.03028752 2.91189085 48.03028752 3 52 C3.66 52 4.32 52 5 52 C6.2890625 53.53125 6.2890625 53.53125 7.625 55.5 C8.07101562 56.1496875 8.51703125 56.799375 8.9765625 57.46875 C9.31429688 57.9740625 9.65203125 58.479375 10 59 C9.34 60.32 8.68 61.64 8 63 C4.61648189 61.87216063 4.47116525 61.54911128 2.9375 58.5625 C1.73980602 56.25850235 0.86847183 54.86847183 -1 53 C-1.24291992 51.01635742 -1.24291992 51.01635742 -1.23046875 48.60546875 C-1.22853516 47.73212891 -1.22660156 46.85878906 -1.22460938 45.95898438 C-1.21236328 45.04439453 -1.20011719 44.12980469 -1.1875 43.1875 C-1.18685547 42.28451172 -1.18621094 41.38152344 -1.18554688 40.45117188 C-1.157084 36.14695323 -0.93230895 32.2167735 0 28 C-0.33 27.67 -0.66 27.34 -1 27 C-1.29474273 23.97218833 -1.51723697 20.9727222 -1.6875 17.9375 C-1.77741211 16.68549805 -1.77741211 16.68549805 -1.86914062 15.40820312 C-2.18638333 9.83255396 -1.61418011 5.34967739 0 0 Z " fill="#111A49" transform="translate(385,925)"/>
<path d="M0 0 C0.66 0 1.32 0 2 0 C2.66 1.98 3.32 3.96 4 6 C3.01 6.33 2.02 6.66 1 7 C1 10.3 1 13.6 1 17 C1.66 17 2.32 17 3 17 C3.07654536 21.51617599 3.10228696 25.59085217 2 30 C2.66 30.33 3.32 30.66 4 31 C3.46949266 35.50931237 1.8595705 38.48681339 -1 42 C-2.32 42 -3.64 42 -5 42 C-5 42.66 -5 43.32 -5 44 C-5.7425 44.5878125 -5.7425 44.5878125 -6.5 45.1875 C-8.82173189 47.99292603 -8.25134326 50.48119431 -8 54 C-7.67 54.99 -7.34 55.98 -7 57 C-7.47725675 59.95899183 -8.5907717 62.3694405 -10 65 C-11.32 64.67 -12.64 64.34 -14 64 C-14.33 62.68 -14.66 61.36 -15 60 C-14.01 60 -13.02 60 -12 60 C-11.97421875 58.81921875 -11.9484375 57.6384375 -11.921875 56.421875 C-11.86558603 54.86454677 -11.80823886 53.30725653 -11.75 51.75 C-11.73582031 50.97269531 -11.72164063 50.19539063 -11.70703125 49.39453125 C-11.54501843 45.60343136 -11.43194371 43.58312402 -9.125 40.46875 C-6.55115025 38.68976562 -5.06620509 38.65931055 -2 39 C-1.1189736 34.39107183 -0.79680135 29.87512847 -0.68359375 25.1953125 C-0.66281265 24.4713327 -0.64203156 23.74735291 -0.62062073 23.00143433 C-0.55571147 20.70937761 -0.49651563 18.41721526 -0.4375 16.125 C-0.39425888 14.56248947 -0.35064289 12.99998928 -0.30664062 11.4375 C-0.20009104 7.62510574 -0.09866205 3.8126062 0 0 Z " fill="#354C60" transform="translate(394,988)"/>
<path d="M0 0 C3.04187577 2.21426632 4.90811093 4.90667467 7 8 C7.96736045 9.13516788 8.94527356 10.26150144 9.9375 11.375 C12 14 12 14 12 16 C9.02914221 15.68169381 8.12812832 15.15463763 6.1875 12.8125 C5.465625 11.884375 4.74375 10.95625 4 10 C-0.71504254 4.97142522 -4.08664484 3.24257387 -11 3 C-11 3.66 -11 4.32 -11 5 C-11.66 5 -12.32 5 -13 5 C-13 5.66 -13 6.32 -13 7 C-13.66 7 -14.32 7 -15 7 C-15.66 8.98 -16.32 10.96 -17 13 C-17.66 13 -18.32 13 -19 13 C-19.25523437 13.58265625 -19.51046875 14.1653125 -19.7734375 14.765625 C-21.11741087 17.21388223 -22.61810296 18.81743248 -24.625 20.75 C-25.57246094 21.67039062 -25.57246094 21.67039062 -26.5390625 22.609375 C-27.02117187 23.06828125 -27.50328125 23.5271875 -28 24 C-28.66 23.67 -29.32 23.34 -30 23 C-29.67 21.35 -29.34 19.7 -29 18 C-28.34 18 -27.68 18 -27 18 C-27 17.34 -27 16.68 -27 16 C-26.01 16 -25.02 16 -24 16 C-23.74089844 15.27167969 -23.48179687 14.54335938 -23.21484375 13.79296875 C-21.95985334 10.90770141 -20.50772143 8.77644715 -18.5625 6.3125 C-17.66724609 5.16201172 -17.66724609 5.16201172 -16.75390625 3.98828125 C-12.16010013 -1.21939652 -6.50223398 -1.24815905 0 0 Z " fill="#364A60" transform="translate(374,867)"/>
<path d="M0 0 C2.00537007 3.0080551 2.23911093 3.7908387 2.4375 7.1875 C2.72108797 10.54147307 3.35201322 13.16315118 4.6875 16.25 C6 20 6 20 5.4375 22.875 C3.81872333 25.26797421 2.57824023 25.82951057 0 27 C0.14168137 28.43791516 0.28851043 29.8753237 0.4375 31.3125 C0.55931641 32.51326172 0.55931641 32.51326172 0.68359375 33.73828125 C0.95265693 36.16087179 0.95265693 36.16087179 2 39 C0.1171875 38.796875 0.1171875 38.796875 -2 38 C-4.1558584 33.92949813 -5.33699702 29.58388598 -4.375 25.0625 C-3 23 -3 23 -1.43237305 21.6628418 C0.46548058 19.45962362 0.3479218 18.20790756 0.29296875 15.33203125 C0.28330078 14.43935547 0.27363281 13.54667969 0.26367188 12.62695312 C0.23853516 11.69818359 0.21339844 10.76941406 0.1875 9.8125 C0.17396484 8.87212891 0.16042969 7.93175781 0.14648438 6.96289062 C0.11113096 4.64134962 0.06178674 2.32096347 0 0 Z " fill="#122443" transform="translate(335,954)"/>
<path d="M0 0 C2.84607392 2.84607392 2.2584429 4.7857176 2.265625 8.765625 C2.26753845 9.43664246 2.2694519 10.10765991 2.27142334 10.79901123 C2.27278535 12.22131728 2.26908778 13.64363575 2.26074219 15.06591797 C2.25010904 17.22782931 2.26060147 19.38889697 2.2734375 21.55078125 C2.2721146 22.93489765 2.26954951 24.31901353 2.265625 25.703125 C2.26336914 26.95770508 2.26111328 28.21228516 2.25878906 29.50488281 C1.9959449 33.05476682 1.48756567 35.76589974 0 39 C-3.5625 40.25 -3.5625 40.25 -7 41 C-8.6498007 44.29960141 -8.38258361 47.99127884 -8.5625 51.625 C-8.60568359 52.42679688 -8.64886719 53.22859375 -8.69335938 54.0546875 C-8.79951457 56.0362511 -8.90026855 58.01810271 -9 60 C-10.485 60.495 -10.485 60.495 -12 61 C-11.96688725 58.10112882 -11.89962106 55.20983378 -11.8125 52.3125 C-11.80669922 51.49587891 -11.80089844 50.67925781 -11.79492188 49.83789062 C-11.63917733 45.56356823 -11.40922935 43.54063982 -8.76171875 40.04296875 C-6 38 -6 38 -1 36 C-0.67 24.12 -0.34 12.24 0 0 Z " fill="#00003E" transform="translate(392,988)"/>
<path d="M0 0 C1.32 0.33 2.64 0.66 4 1 C3.690625 1.886875 3.38125 2.77375 3.0625 3.6875 C1.18569453 9.53871706 0.92715299 12.1472555 3 18 C3 19.66666667 3 21.33333333 3 23 C3.66 23.66 4.32 24.32 5 25 C5.625 27.625 5.625 27.625 6 30 C5.01 30.33 4.02 30.66 3 31 C2.34865075 29.43979133 1.70417036 27.87671421 1.0625 26.3125 C0.70285156 25.44238281 0.34320313 24.57226562 -0.02734375 23.67578125 C-2.99853324 15.50202704 -2.33716483 8.18007691 0 0 Z " fill="#344765" transform="translate(385,925)"/>
<path d="M0 0 C0 0.66 0 1.32 0 2 C-0.99 2.495 -0.99 2.495 -2 3 C-2.91773806 4.78115518 -3.76226813 6.60054984 -4.5625 8.4375 C-4.99691406 9.42621094 -5.43132812 10.41492188 -5.87890625 11.43359375 C-6.43384766 12.70396484 -6.43384766 12.70396484 -7 14 C-7.33 14.66 -7.66 15.32 -8 16 C-8.27358115 18.85306062 -8.44625242 21.70570456 -8.62109375 24.56640625 C-8.74613281 25.36949219 -8.87117188 26.17257812 -9 27 C-9.66 27.33 -10.32 27.66 -11 28 C-11.06058594 27.38511719 -11.12117188 26.77023437 -11.18359375 26.13671875 C-11.26738281 25.32847656 -11.35117187 24.52023437 -11.4375 23.6875 C-11.51871094 22.88699219 -11.59992188 22.08648438 -11.68359375 21.26171875 C-11.95265693 18.83912821 -11.95265693 18.83912821 -13 16 C-12.5625 13.3125 -12.5625 13.3125 -12 11 C-10.68 11 -9.36 11 -8 11 C-8.66 10.67 -9.32 10.34 -10 10 C-9.67 8.68 -9.34 7.36 -9 6 C-8.01 6 -7.02 6 -6 6 C-5.8453125 5.071875 -5.8453125 5.071875 -5.6875 4.125 C-4.72223986 1.14146864 -3.16449578 0 0 0 Z " fill="#132942" transform="translate(344,891)"/>
<path d="M0 0 C0.66 0 1.32 0 2 0 C2.66 1.98 3.32 3.96 4 6 C3.01 6.33 2.02 6.66 1 7 C1 10.3 1 13.6 1 17 C1.66 17 2.32 17 3 17 C3.07654536 21.51617599 3.10228696 25.59085217 2 30 C2.66 30.33 3.32 30.66 4 31 C3.505 32.485 3.505 32.485 3 34 C2.34 34 1.68 34 1 34 C0.67 34.66 0.34 35.32 0 36 C0 24.12 0 12.24 0 0 Z " fill="#484F5E" transform="translate(394,988)"/>
<path d="M0 0 C0.33 0 0.66 0 1 0 C1.66 10.56 2.32 21.12 3 32 C2.01 32 1.02 32 0 32 C-1.15837626 27.94568308 -0.83691257 25.78187881 1 22 C0.34 21.67 -0.32 21.34 -1 21 C-2.46007363 14.60106863 -3.00900911 6.01801821 0 0 Z " fill="#2D4F5E" transform="translate(333,936)"/>
<path d="M0 0 C0.99 0.33 1.98 0.66 3 1 C2.34 1 1.68 1 1 1 C1 1.66 1 2.32 1 3 C0.34 3 -0.32 3 -1 3 C-1.66 4.98 -2.32 6.96 -3 9 C-3.66 9 -4.32 9 -5 9 C-5.25523437 9.58265625 -5.51046875 10.1653125 -5.7734375 10.765625 C-7.11741087 13.21388223 -8.61810296 14.81743248 -10.625 16.75 C-11.57246094 17.67039062 -11.57246094 17.67039062 -12.5390625 18.609375 C-13.02117187 19.06828125 -13.50328125 19.5271875 -14 20 C-14.66 19.67 -15.32 19.34 -16 19 C-15.67 17.35 -15.34 15.7 -15 14 C-14.34 14 -13.68 14 -13 14 C-13 13.34 -13 12.68 -13 12 C-12.01 12 -11.02 12 -10 12 C-9.71125 11.21625 -9.4225 10.4325 -9.125 9.625 C-8 7 -8 7 -6 5 C-6 5.66 -6 6.32 -6 7 C-3.48916886 5.74458443 -3.12874554 4.49936512 -2 2 C-1.34 2 -0.68 2 0 2 C0 1.34 0 0.68 0 0 Z " fill="#18213E" transform="translate(360,871)"/>
<path d="M0 0 C4.29718953 1.38914475 6.70687757 3.38031985 9.8125 6.625 C10.99779297 7.85089844 10.99779297 7.85089844 12.20703125 9.1015625 C12.79871094 9.72804688 13.39039063 10.35453125 14 11 C13.67 11.99 13.34 12.98 13 14 C11.68 13.67 10.36 13.34 9 13 C9 12.01 9 11.02 9 10 C7.68 9.67 6.36 9.34 5 9 C5 8.01 5 7.02 5 6 C4.34 6 3.68 6 3 6 C1.375 4.6875 1.375 4.6875 0 3 C0 2.01 0 1.02 0 0 Z " fill="#2B3D4E" transform="translate(366,1035)"/>
<path d="M0 0 C0.99 0.33 1.98 0.66 3 1 C3.33 1.99 3.66 2.98 4 4 C2.3125 6.6875 2.3125 6.6875 0 9 C-1.32 9 -2.64 9 -4 9 C-4 9.66 -4 10.32 -4 11 C-5.98 11 -7.96 11 -10 11 C-9.4375 9.0625 -9.4375 9.0625 -8 7 C-4.375 6.25 -4.375 6.25 -1 6 C-0.67 4.02 -0.34 2.04 0 0 Z " fill="#3E516C" transform="translate(393,1021)"/>
<path d="M0 0 C3.48121245 2.11359327 5.08813399 4.59412302 6.98046875 8.16015625 C8.11897569 10.29583784 8.11897569 10.29583784 10.3125 13.25 C10.869375 14.1575 11.42625 15.065 12 16 C11.67 16.99 11.34 17.98 11 19 C10.52949219 18.2059375 10.05898438 17.411875 9.57421875 16.59375 C8.64029297 15.06234375 8.64029297 15.06234375 7.6875 13.5 C7.07261719 12.4790625 6.45773437 11.458125 5.82421875 10.40625 C4.92123047 9.21515625 4.92123047 9.21515625 4 8 C3.01 8 2.02 8 1 8 C0.01 5.69 -0.98 3.38 -2 1 C-1.34 0.67 -0.68 0.34 0 0 Z " fill="#0D1C33" transform="translate(337,993)"/>
<path d="M0 0 C0.66 0 1.32 0 2 0 C2.21203451 5.83094895 1.96947414 11.44413776 0 17 C-0.66 17.33 -1.32 17.66 -2 18 C-2.054348 15.9377952 -2.09294961 13.87517184 -2.125 11.8125 C-2.14820313 10.66394531 -2.17140625 9.51539063 -2.1953125 8.33203125 C-2.00484152 5.08259628 -1.39360127 2.91339479 0 0 Z " fill="#345168" transform="translate(387,957)"/>
<path d="M0 0 C0.99 0.99 1.98 1.98 3 3 C-0.3 3.33 -3.6 3.66 -7 4 C-7 4.66 -7 5.32 -7 6 C-7.99 6.495 -7.99 6.495 -9 7 C-10.13350534 9.01669827 -10.13350534 9.01669827 -11 11 C-11.66 11 -12.32 11 -13 11 C-12.3836103 6.99346695 -10.41427274 4.19536099 -8 1 C-4.99825776 -0.00058075 -3.12414314 -0.31241431 0 0 Z " fill="#345061" transform="translate(367,867)"/>
<path d="M0 0 C3.84469707 1.469787 5.10574221 3.38402785 7.0625 6.9375 C8.7910854 10.05078777 10.34201487 12.61017954 13 15 C12.01 15.66 11.02 16.32 10 17 C7.32098068 14.68118495 6.33795597 12.68185532 5.3125 9.3125 C4.93544922 8.10013672 4.93544922 8.10013672 4.55078125 6.86328125 C4.36902344 6.24839844 4.18726563 5.63351562 4 5 C3.34 5 2.68 5 2 5 C1.34 3.35 0.68 1.7 0 0 Z " fill="#273A5A" transform="translate(339,1000)"/>
<path d="M0 0 C0.99 0.33 1.98 0.66 3 1 C1.52553146 4.88723524 -0.5052928 5.93901883 -4 8 C-4.33 8.99 -4.66 9.98 -5 11 C-5.66 11 -6.32 11 -7 11 C-7.33 9.68 -7.66 8.36 -8 7 C-7.50628906 6.66226563 -7.01257813 6.32453125 -6.50390625 5.9765625 C-5.86324219 5.53054688 -5.22257812 5.08453125 -4.5625 4.625 C-3.92441406 4.18414063 -3.28632813 3.74328125 -2.62890625 3.2890625 C-0.86259072 2.07839147 -0.86259072 2.07839147 0 0 Z " fill="#2B4961" transform="translate(343,886)"/>
<path d="M0 0 C0.99 0.99 1.98 1.98 3 3 C2.25 5.875 2.25 5.875 1 9 C-0.98 9.99 -0.98 9.99 -3 11 C-3 13.97 -3 16.94 -3 20 C-3.33 20 -3.66 20 -4 20 C-4.65232757 16.97733365 -5.15112592 14.0980814 -5 11 C-2.5625 8.875 -2.5625 8.875 0 7 C0.41771804 3.33200185 0.41771804 3.33200185 0 0 Z " fill="#00001E" transform="translate(338,970)"/>
<path d="M0 0 C0.66 0 1.32 0 2 0 C3.49140021 3.62197194 4.7874262 7.27566618 6 11 C5.01 11.33 4.02 11.66 3 12 C-0.42857143 4.71428571 -0.42857143 4.71428571 0 0 Z " fill="#374C5F" transform="translate(385,944)"/>
<path d="M0 0 C0.33 0 0.66 0 1 0 C1 6.27 1 12.54 1 19 C0.01 19.33 -0.98 19.66 -2 20 C-1.34 13.4 -0.68 6.8 0 0 Z " fill="#33445C" transform="translate(245,646)"/>
<path d="M0 0 C0.66 0 1.32 0 2 0 C1.5020163 3.73487777 1.12508244 5.81237635 -1 9 C-1.39387788 11.32387947 -1.73486085 13.65793749 -2 16 C-2.33 16 -2.66 16 -3 16 C-3.37952295 9.80112515 -2.8352113 5.5522888 0 0 Z " fill="#275B6A" transform="translate(382,884)"/>
<path d="M0 0 C0.99 0.66 1.98 1.32 3 2 C3 2.99 3 3.98 3 5 C3.66 5 4.32 5 5 5 C5.33 5.99 5.66 6.98 6 8 C3.125 7.3125 3.125 7.3125 0 6 C-1.375 3.375 -1.375 3.375 -2 1 C-1.34 0.67 -0.68 0.34 0 0 Z " fill="#1B2939" transform="translate(363,1028)"/>
<path d="M0 0 C0.66 0 1.32 0 2 0 C3.85776765 3.13498292 4.20140476 5.37471432 4 9 C4.99 9.33 5.98 9.66 7 10 C7 10.66 7 11.32 7 12 C5.109375 11.8125 5.109375 11.8125 3 11 C1.953125 8.75 1.953125 8.75 1.25 6 C1.00765625 5.0925 0.7653125 4.185 0.515625 3.25 C0 1 0 1 0 0 Z " fill="#283E50" transform="translate(330,981)"/>
<path d="M0 0 C0.99 0 1.98 0 3 0 C3.33 3.63 3.66 7.26 4 11 C3.01 11 2.02 11 1 11 C-0.15837626 6.94568308 0.16308743 4.78187881 2 1 C1.34 0.67 0.68 0.34 0 0 Z " fill="#33455B" transform="translate(332,957)"/>
<path d="M0 0 C0.99 0.495 0.99 0.495 2 1 C2.125 7.75 2.125 7.75 1 10 C1.99 10.33 2.98 10.66 4 11 C4.33 11.99 4.66 12.98 5 14 C2.525 13.01 2.525 13.01 0 12 C0 8.04 0 4.08 0 0 Z " fill="#354464" transform="translate(380,892)"/>
<path d="M0 0 C0.33 0 0.66 0 1 0 C1 3.96 1 7.92 1 12 C0.67 11.34 0.34 10.68 0 10 C-0.66 10 -1.32 10 -2 10 C-2 7.36 -2 4.72 -2 2 C-1.34 2 -0.68 2 0 2 C0 1.34 0 0.68 0 0 Z " fill="#2B3854" transform="translate(332,910)"/>
<path d="M0 0 C1.98 1.65 3.96 3.3 6 5 C5.67 5.99 5.34 6.98 5 8 C3.68 7.67 2.36 7.34 1 7 C0.67 4.69 0.34 2.38 0 0 Z " fill="#1D2B45" transform="translate(374,1041)"/>
<path d="M0 0 C0.33 0 0.66 0 1 0 C1 4.95 1 9.9 1 15 C0.01 15.33 -0.98 15.66 -2 16 C-1.34 10.72 -0.68 5.44 0 0 Z " fill="#00054D" transform="translate(382,1033)"/>
<path d="M0 0 C0.33 0 0.66 0 1 0 C1.309375 1.11375 1.61875 2.2275 1.9375 3.375 C2.82326483 6.7945155 2.82326483 6.7945155 4 9 C3.34 9.66 2.68 10.32 2 11 C-0.99481865 6.41968912 -0.99481865 6.41968912 -2 4 C-1.25 1.5625 -1.25 1.5625 0 0 Z " fill="#1C3C53" transform="translate(387,973)"/>
<path d="M0 0 C0.66 0 1.32 0 2 0 C3.49821059 3.37097383 4 5.20442119 4 9 C3.34 9 2.68 9 2 9 C2 8.34 2 7.68 2 7 C1.34 6.67 0.68 6.34 0 6 C0 4.02 0 2.04 0 0 Z " fill="#253C68" transform="translate(335,968)"/>
<path d="M0 0 C0.66 0 1.32 0 2 0 C4.09230769 4.43076923 4.09230769 4.43076923 3.625 7.3125 C3.41875 7.869375 3.2125 8.42625 3 9 C3 8.01 3 7.02 3 6 C2.34 6 1.68 6 1 6 C0.67 6.66 0.34 7.32 0 8 C-0.38063221 5.6739143 -0.71269945 3.33944736 -1 1 C-0.67 0.67 -0.34 0.34 0 0 Z " fill="#2C436B" transform="translate(384,938)"/>
<path d="M0 0 C1.32 0.33 2.64 0.66 4 1 C3.34 3.64 2.68 6.28 2 9 C1.34 9 0.68 9 0 9 C0 6.03 0 3.06 0 0 Z " fill="#394454" transform="translate(383,1032)"/>
<path d="M0 0 C2.0625 1.75 2.0625 1.75 4 4 C3.75 6.25 3.75 6.25 3 8 C2.01 8 1.02 8 0 8 C-0.38063221 5.6739143 -0.71269945 3.33944736 -1 1 C-0.67 0.67 -0.34 0.34 0 0 Z " fill="#324A60" transform="translate(386,916)"/>
<path d="M0 0 C0.99 0.33 1.98 0.66 3 1 C2.4140625 7.15234375 2.4140625 7.15234375 2 9 C1.01 9.495 1.01 9.495 0 10 C0 6.7 0 3.4 0 0 Z " fill="#464958" transform="translate(385,965)"/>
<path d="M0 0 C-0.66 0 -1.32 0 -2 0 C-2 0.66 -2 1.32 -2 2 C-3.98 2 -5.96 2 -8 2 C-7.67 1.01 -7.34 0.02 -7 -1 C-3.62895826 -2.46078476 -3.21850792 -2.14567195 0 0 Z " fill="#2F505F" transform="translate(391,1030)"/>
<path d="M0 0 C3.29148243 1.13499394 3.9959869 1.99283376 5.75 5.125 C6.1625 6.07375 6.575 7.0225 7 8 C6.01 7.67 5.02 7.34 4 7 C4 6.34 4 5.68 4 5 C3.34 5 2.68 5 2 5 C1.34 3.35 0.68 1.7 0 0 Z " fill="#304F5F" transform="translate(339,1000)"/>
<path d="M0 0 C0.99 0.33 1.98 0.66 3 1 C3.33 1.99 3.66 2.98 4 4 C3.01 4.99 2.02 5.98 1 7 C0.34 6.67 -0.32 6.34 -1 6 C-0.67 4.02 -0.34 2.04 0 0 Z " fill="#2D4769" transform="translate(393,1021)"/>
<path d="M0 0 C4.55384615 -0.36923077 4.55384615 -0.36923077 6.8125 1.5 C7.204375 1.995 7.59625 2.49 8 3 C5.36 3.33 2.72 3.66 0 4 C0 2.68 0 1.36 0 0 Z " fill="#205E6D" transform="translate(362,867)"/>
</svg>
